<svg
   version="1.1"
   width="90pt"
   height="90pt"
   id="cqu-logo-export-vi-svg218"
   viewBox="0 0 90 90"
   xmlns:xlink="http://www.w3.org/1999/xlink"
   xmlns="http://www.w3.org/2000/svg">
   <path
      d="m 42.8675,25.1634 c 1.2275,-0.1189 2.4657,-0.1198 3.6934,-0.002 l 0.8416,-2.3805 0.0374,0.005 c 1.9788,0.2461 3.916,0.7677 5.7549,1.5381 l 0.0349,0.0146 -0.4633,2.4902 c 1.1211,0.5123 2.193,1.1309 3.1972,1.8456 l 1.9207,-1.6422 0.0302,0.0228 c 1.5504,1.1727 2.9373,2.5558 4.1232,4.0957 l 0.0326,0.0424 h -1.7211 l 0.051,-0.0595 c -0.7194,-0.8452 -1.5065,-1.6325 -2.3516,-2.3519 l -1.8988,1.6233 -0.0303,-0.0246 c -1.477,-1.1947 -3.137,-2.1505 -4.9075,-2.838 l -0.0364,-0.0141 0.4569,-2.4577 c -1.0451,-0.373 -2.1206,-0.6605 -3.2123,-0.8591 l -0.8333,2.3572 -0.0386,-0.006 c -0.9369,-0.1506 -1.8859,-0.221 -2.8346,-0.221 -0.9488,0 -1.8978,0.0704 -2.8348,0.221 l -0.0385,0.006 -0.8331,-2.3572 c -1.0918,0.1986 -2.1672,0.4861 -3.2124,0.8588 l 0.457,2.458 -0.0364,0.0141 c -1.7706,0.6875 -3.4305,1.6432 -4.9076,2.838 l -0.0304,0.0246 -1.8986,-1.6232 c -0.8451,0.7194 -1.6323,1.5065 -2.3517,2.3516 l 0.051,0.0597 h -1.7211 l 0.0326,-0.0424 c 1.1859,-1.54 2.5728,-2.923 4.1232,-4.0957 l 0.0302,-0.0228 1.9178,1.6398 c 1.0044,-0.7156 2.0774,-1.3337 3.1999,-1.8446 l -0.463,-2.4888 0.0349,-0.0146 c 1.8389,-0.7704 3.7761,-1.292 5.755,-1.5381 l 0.0373,-0.005 z"
      style="fill:#004d99;fill-rule:evenodd"
      id="path8" />
   <path
      d="m 44.7137,27.6079 c 3.9059,0 7.5011,1.3286 10.3595,3.558 h -1.0665 c -2.6323,-1.8425 -5.8361,-2.9244 -9.293,-2.9244 -3.4569,0 -6.6606,1.0819 -9.293,2.9244 h -1.0664 c 2.8583,-2.2294 6.4535,-3.558 10.3594,-3.558 z"
      style="fill:#004d99;fill-rule:evenodd"
      id="path10" />
   <path
      d="m 66.2787,36.3779 c 1.2772,1.4246 2.1115,3.1291 2.0796,5.5716 0.6515,-0.5087 0.8901,-2.6396 2.0168,-3.4406 0.2699,3.021 -0.8976,5.1799 -2.727,7.1054 -0.1271,-1.9357 -1.6451,-0.7264 -2.0657,-5.477 0.765,0.4443 0.7889,1.6412 1.961,2.2976 -1.3541,-2.4417 -1.2214,-3.5862 -1.2647,-6.057 z m -3.623,23.4102 c 0.02,0.2652 0.0576,0.5243 0.0843,0.6704 -0.6822,0.1982 -1.3482,0.4545 -1.9792,0.8817 0.9823,-1.2723 1.3623,-3.2101 1.1416,-4.5957 -1.6097,2.2728 -3.8416,4.0334 -3.6234,6.5208 -0.0194,0.1552 -0.0141,0.4427 -0.006,0.6658 -0.7878,0.2352 -1.5351,0.5863 -2.2567,1.1638 -0.135,0.1081 -0.3067,0.3226 -0.3387,0.2766 -0.0321,-0.046 0.1581,-0.2418 0.2746,-0.3903 0.9153,-1.1669 1.4981,-2.7501 2.0102,-3.9874 -3.4157,2.6313 -4.3179,2.5274 -6.1112,4.8003 -0.5097,0.6459 -2.777,1.1116 -3.5131,1.2585 -0.1756,0.035 -0.175,0.2752 -0.007,0.2604 0.8367,-0.0729 2.338,0.027 2.9126,0.2472 2.9871,1.1452 5.3202,0.5407 8.439,-1.1188 -1.6422,0.1429 -3.2865,0.0442 -4.9337,-0.4131 0.2715,-0.0902 0.53,-0.3362 0.8146,-0.2708 3.5706,0.8212 6.0521,-0.5157 8.4998,-3.0773 -2.1247,0.5407 -3.7682,0.7343 -5.4096,1.1463 l 0.003,-0.008 c 0.1041,-0.3148 0.5977,-0.5512 0.5989,-0.5518 2.4415,-1.0646 5.1248,-0.1182 7.6458,-4.2126 -1.2733,0.7939 -2.5841,0.9766 -3.8839,1.3295 0.003,-0.2028 -0.0189,-0.4582 0.1209,-0.7131 1.8608,-1.8105 4.2204,-1.0257 6.5272,-6.1253 -1.1835,0.1655 -2.3813,1.1709 -3.402,1.9341 0.0713,-0.2604 0.2088,-0.6039 0.3769,-0.9087 2.0083,-1.7779 3.9664,-3.1081 4.274,-5.9626 -0.6355,0.6391 -1.7203,1.2789 -2.5244,1.743 1.4415,-2.1609 2.8233,-4.6478 2.5315,-7.8033 -0.5663,2.5968 -2.1633,2.893 -3.0851,4.8747 -0.52,-1.5199 -1.105,-2.3604 -1.9331,-3.3422 -0.2344,4.45 1.4752,4.2813 1.6206,7.4873 l -0.6425,0.506 c 0.002,-1.5447 -0.5365,-3.1266 -1.3114,-4.4162 -0.109,2.3312 -1.0062,5.1215 0.382,7.0985 0.1182,0.3962 0.1035,0.7078 0.0689,0.9027 -0.5368,0.39 -1.0123,0.6855 -1.3912,0.7149 0.2361,-1.3575 0.2345,-2.8903 -0.2939,-4.2624 -0.3656,2.4944 -2.072,4.4994 -1.6808,7.677 z"
      style="fill:#004d99;fill-rule:evenodd"
      id="path13" />
   <path
      d="m 23.1487,36.3379 c -1.2773,1.4246 -2.1116,3.1291 -2.0796,5.5716 -0.6515,-0.5087 -0.8902,-2.6396 -2.0169,-3.4406 -0.2699,3.021 0.8976,5.1799 2.727,7.1054 0.1271,-1.9357 1.6451,-0.7264 2.0657,-5.477 -0.765,0.4443 -0.7889,1.6412 -1.961,2.2976 1.3541,-2.4417 1.2214,-3.5862 1.2648,-6.057 z m 3.6229,23.4102 c -0.02,0.2652 -0.0576,0.5243 -0.0842,0.6704 0.6821,0.1982 1.3481,0.4545 1.9791,0.8817 -0.9823,-1.2723 -1.3623,-3.2101 -1.1416,-4.5957 1.6097,2.2728 3.8416,4.0334 3.6234,6.5208 0.0194,0.1552 0.0141,0.4427 0.006,0.6658 0.7878,0.2352 1.5351,0.5863 2.2567,1.1638 0.1351,0.1081 0.3068,0.3226 0.3388,0.2766 0.032,-0.046 -0.1582,-0.2418 -0.2747,-0.3903 -0.9153,-1.1669 -1.4981,-2.7501 -2.0102,-3.9874 3.4157,2.6313 4.3179,2.5274 6.1112,4.8003 0.5097,0.6459 2.777,1.1116 3.5131,1.2585 0.1756,0.035 0.175,0.2752 0.007,0.2604 -0.8366,-0.0729 -2.3379,0.027 -2.9126,0.2472 -2.9871,1.1452 -5.3202,0.5407 -8.439,-1.1188 1.6422,0.1429 3.2865,0.0442 4.9337,-0.4131 -0.2715,-0.0902 -0.53,-0.3362 -0.8145,-0.2708 -3.5707,0.8212 -6.0522,-0.5157 -8.4999,-3.0773 2.1247,0.5407 3.7683,0.7343 5.4096,1.1463 l -0.003,-0.008 c -0.1041,-0.3148 -0.5976,-0.5512 -0.5989,-0.5518 -2.4415,-1.0646 -5.1248,-0.1182 -7.6458,-4.2126 1.2733,0.7939 2.5841,0.9766 3.8839,1.3295 -0.003,-0.2028 0.0189,-0.4582 -0.1209,-0.7131 -1.8608,-1.8105 -4.2204,-1.0257 -6.5271,-6.1253 1.1834,0.1655 2.3812,1.1709 3.4019,1.9341 -0.0713,-0.2604 -0.2088,-0.6039 -0.3769,-0.9087 -2.0083,-1.7779 -3.9664,-3.1081 -4.274,-5.9626 0.6355,0.6391 1.7204,1.2789 2.5245,1.743 -1.4415,-2.1609 -2.8234,-4.6478 -2.5316,-7.8033 0.5663,2.5968 2.1633,2.893 3.0851,4.8747 0.52,-1.5199 1.105,-2.3604 1.9331,-3.3422 0.2344,4.45 -1.4752,4.2813 -1.6206,7.4873 l 0.6425,0.506 c -0.002,-1.5447 0.5365,-3.1266 1.3114,-4.4162 0.109,2.3312 1.0062,5.1215 -0.382,7.0985 -0.1182,0.3962 -0.1035,0.7078 -0.0689,0.9027 0.5369,0.39 1.0123,0.6855 1.3913,0.7149 -0.2362,-1.3575 -0.2346,-2.8903 0.2938,-4.2624 0.3656,2.4944 2.072,4.4994 1.6808,7.677 z"
      style="fill:#004d99;fill-rule:evenodd"
      id="path15" />
   <path
      d="m 44.7156,67.4391 1.1889,-2.0592 h -2.3777 z m 23.1332,-36.2732 -23.1332,40.0746 -23.137,-40.0746 c 15.4234,0 30.8468,0 46.2702,0 z m -23.15,28.5116 -1.0976,-1.9008 h -3.2796 l -0.5923,1.026 0.5051,0.8748 z m -1.4634,-2.5343 -1.274,-2.2066 -1.2739,2.2066 z m -4.0112,0 1.0975,-1.9008 h -2.648 l 1.0976,1.9008 z m 1.4633,-2.5344 0.5424,-0.9395 -0.5551,-0.9613 h -2.9325 l -0.7659,1.3265 0.3316,0.5743 z m -0.3785,-2.5344 -1.0973,-1.9007 h -0.006 l -1.0974,1.9007 z m -3.664,0 1.0974,-1.9007 h -2.9951 l 1.0975,1.9007 h 1e-4 z m 1.4631,-2.5343 1.0974,-1.9009 h -5.9213 l 1.0974,1.9009 z m 1.1036,-1.9009 1.0974,1.9009 h 3.3048 l 1.0974,-1.9009 z m 1.4631,2.5345 1.2867,2.2283 1.2866,-2.2283 z m 4.0426,-2.5345 1.0974,1.9009 h 3.3048 l 1.0974,-1.9009 z m 1.4632,2.5345 1.2867,2.2284 1.2866,-2.2284 z m 4.0425,-2.5345 1.0974,1.9009 h 3.7291 l 1.0974,-1.9009 z m 1.4632,2.5345 1.0974,1.9007 h 1e-4 0.8026 l 1.0974,-1.9007 z m 0.7671,3.8632 -0.7671,-1.3289 h -2.9325 l -0.555,0.9613 0.5423,0.9395 h 3.382 z m -1.1329,-1.9625 -1.0974,-1.9007 h -0.006 l -1.0974,1.9007 z m -2.2135,3.168 1.0974,1.9008 h 0.4556 l 1.0974,-1.9008 z m 0.5936,3.5624 -0.5936,-1.0281 h -3.2795 l -1.0976,1.9008 h 4.4669 z m -0.9595,-1.6616 -1.2738,-2.2067 -1.2741,2.2067 z m -6.048,-3.4739 0.5424,0.9395 h 2.9578 l 0.5423,-0.9395 -0.555,-0.9613 h -2.9326 z m 0.9082,1.5731 1.0975,1.9008 h 0.0311 l 1.0976,-1.9008 z m 2.2135,-3.168 -1.0974,-1.9007 h -0.006 l -1.0973,1.9007 z m -20.9441,-19.0078 h 39.6898 l -4.3896,7.6032 h -30.9107 z m 5.487,9.5039 h 28.7157 l -1.0973,1.9008 h -26.521 z m 15.9126,22.1757 1.0974,-1.9007 h -5.3042 l 1.0974,1.9007 z m 1.4632,-2.5342 1.0975,-1.9009 h -8.2308 l 1.0976,1.9009 z m 8.7792,-15.2063 h -23.5943 l -1.0975,-1.9008 h 25.7894 z"
      style="fill:#004d99;fill-rule:evenodd"
      id="path18" />
   <path
      d="m 44.7136,2 c 23.4541,0 42.4673,19.0132 42.4673,42.4673 0,23.4541 -19.0132,42.4672 -42.4673,42.4672 -23.4541,0 -42.4672,-19.0131 -42.4672,-42.4672 0,-23.4541 19.0131,-42.4673 42.4672,-42.4673 z m 0,2.5344 c -22.0552,0 -39.9329,17.8777 -39.9329,39.9329 0,22.0552 17.8777,39.9329 39.9329,39.9329 22.0552,0 39.9329,-17.8777 39.9329,-39.9329 0,-22.0552 -17.8777,-39.9329 -39.9329,-39.9329 z"
      style="fill:#004d99;fill-rule:evenodd"
      id="path20" />
   <g
      id="da-xue-qing-chong-chn">
      <path
         d="m 52.8709,14.2239 c -0.1318,0.4459 -0.2633,0.7601 -0.3204,1.1165 -0.022,0.1411 0.9062,-0.0938 0.9964,-0.1038 0.0107,-10e-4 0.0209,-0.002 0.0307,-0.003 0.0133,-0.004 0.0267,-0.007 0.0402,-0.0103 0.1662,-0.0397 0.3443,-0.0561 0.5125,-0.1032 l 0.4281,-0.1397 0.0762,-0.0304 0.0852,-0.0271 c 0.0278,-0.0113 0.0681,-0.0363 0.0701,-0.0685 0.002,-0.0318 -10e-4,-0.0644 0.001,-0.0913 0.003,-0.0277 -0.0336,-0.0376 -0.001,-0.0557 0.0287,-0.006 -0.0377,-0.0792 0.0548,-0.0578 l 0.0664,0.0307 0.0548,0.0294 c 0.046,0.0297 0.0905,0.0836 0.1287,0.1254 0.0632,0.0696 0.1149,0.1292 0.1472,0.2035 0.0258,0.0581 0.0698,0.2151 0.0725,0.2758 l -0.007,0.003 -0.003,0.0377 c 0.004,0.01 -0.0581,0.1578 -0.0631,0.1608 -6e-4,0.0304 -0.0152,0.0781 -0.0473,0.0907 l 0.002,0.006 c -0.0395,0.0333 -0.0586,0.0195 -0.1091,0.0422 -0.021,0.0778 -0.2459,0.1352 -0.3081,0.1304 -0.005,-0.0112 -0.3613,0.0588 -0.683,0.1082 -0.4675,0.1024 -0.9526,0.1708 -1.2221,0.2128 l -0.0274,0.0112 -0.0129,-0.005 c -0.0414,0.006 -0.0764,0.0116 -0.1041,0.0168 -0.0733,0.0137 -0.2286,0.0161 -0.2075,0.0876 0.0466,0.1615 0.005,0.3355 0.1912,0.6846 0.055,0.1011 0.1111,0.4901 0.1555,0.6292 0.0531,0.167 0.1615,0.4833 0.2211,0.6431 0.0513,0.1372 0.1501,0.3308 0.2125,0.4739 0.0456,0.105 0.0763,0.2197 0.1256,0.3203 0.1361,0.2764 0.2358,0.4359 0.4004,0.6461 0.0549,0.0692 0.1535,0.1985 0.2118,0.258 0.0581,0.0587 0.1436,0.1328 0.2039,0.1828 0.1377,0.1137 0.3116,0.1968 0.4492,0.2715 0.2474,0.1344 0.4489,0.2217 0.6151,0.2731 0.0808,0.0242 0.1809,0.0469 0.2271,0.0643 0.1174,0.0443 0.0712,0.0692 -0.1755,0.1243 -0.1516,0.0335 -0.4001,0.1204 -0.745,0.1416 -0.1202,0.007 -0.2866,0.009 -0.4305,0.036 -0.1701,0.0322 -0.3973,-0.0656 -0.5504,-0.1555 -0.1714,-0.1007 -0.2744,-0.1628 -0.4141,-0.3525 -0.0625,-0.0839 -0.1135,-0.217 -0.1679,-0.3089 -0.1857,-0.3137 -0.3374,-0.5829 -0.4075,-0.8284 -0.0711,-0.2243 -0.1196,-0.498 -0.1749,-0.6796 -0.1692,-0.5547 -0.2757,-0.9231 -0.3848,-1.1894 -0.037,-0.0905 -0.0442,-0.1199 -0.1099,-0.1325 -0.0556,-0.0107 -0.0745,0.05 -0.0903,0.0748 -0.16,0.2457 -0.2809,0.5421 -0.4552,0.7877 -0.1534,0.2154 -0.3563,0.3832 -0.5456,0.5589 -0.237,0.2193 -0.4971,0.413 -0.8632,0.4667 -0.1149,0.016 -0.28,0.0145 -0.411,0.009 -0.2373,-0.009 -0.4925,-0.098 -0.8407,-0.1738 -0.3692,-0.0806 -0.9883,-0.134 -1.3752,-0.2649 -0.3825,-0.129 -0.4064,-0.2007 -0.2092,-0.2847 0.4469,-0.01 1.5208,0.0105 1.9369,-0.052 0.4003,-0.0594 0.7047,-0.2188 1.0401,-0.4711 0.1676,-0.1264 0.2919,-0.286 0.4424,-0.4679 0.1202,-0.1448 0.2961,-0.354 0.3549,-0.5464 0.0357,-0.0212 0.1765,-0.2744 0.3056,-0.5465 -0.1016,0.008 -0.1931,-0.003 -0.2743,0.008 -0.1495,0.0213 -0.2632,0.0171 -0.3577,0.0371 -0.1888,0.0405 -0.2871,0.0958 -0.3433,0.1021 -0.0976,0.011 -0.1107,0.0114 -0.2339,0.0268 -0.0962,0.0123 -0.1065,0.0586 -0.203,0.0743 -0.0911,0.0146 -0.0972,0.0207 -0.1669,0.0473 -0.0473,0.0177 -0.1205,0.022 -0.1412,0.048 -0.1033,0.0854 -0.2287,0.0542 -0.313,0.1059 -0.0822,0.007 -0.2505,-0.0542 -0.3131,-0.1783 -0.001,-0.003 -0.0649,-0.1525 -0.0715,-0.168 -0.0455,-0.1091 -0.0953,-0.1884 -0.1028,-0.191 0.007,-0.277 0.2391,-0.3753 0.4007,-0.4014 l 0.2989,-0.0484 c 0.1675,0.0167 0.3863,-0.0643 0.6723,-0.1144 0.3788,-0.0661 0.8327,-0.064 1.2444,-0.173 0.0825,-0.0215 0.1537,-0.0403 0.2169,-0.0563 0.0753,-0.1901 0.1633,-0.3967 0.2518,-0.6151 0.1563,-0.6063 0.6974,-2.0329 0.8765,-2.872 l 0.1573,-0.9994 -0.0137,-0.002 c 0.0202,-0.1268 -0.1348,-0.3194 -0.1164,-0.4371 v 0 l 0.0137,0.0186 c 0.004,-0.026 0.009,-0.0447 -0.004,-0.0705 l 10e-4,-10e-4 0.005,0.008 c 0.0111,-0.0723 0.0604,-0.1418 0.1186,-0.183 l 0.0911,0.009 -0.004,-9e-4 c 0.2369,0.0341 0.4804,0.1458 0.6934,0.2399 l -0.002,0.0112 0.0443,0.0316 c 0.0158,0.003 0.0434,0.0584 0.0444,0.0795 0.0423,0.0184 0.0854,0.0598 0.0849,0.109 0.0379,0.0238 0.0863,0.0772 0.0785,0.1267 l 0.008,0.001 c 0.0121,0.0741 0.0613,0.0946 0.0528,0.1749 0.0811,0.0843 -0.0926,0.3707 -0.1454,0.4446 l -0.0165,-0.002 c -0.0191,0.1205 -0.0743,0.2881 -0.1485,0.3859 l -0.0533,0.1395 c 4e-4,0 -0.009,0.019 -0.0111,0.0272 -0.2235,0.4549 -0.5356,1.4801 -0.7218,2.0702 z"
         style="fill:#004d99;fill-rule:evenodd"
         id="path22" />
      <path
         d="m 63.4081,18.7157 c 0.166,0.0961 0.1269,0.1989 0.1523,0.3382 0.0137,0.0739 0.0609,0.1344 0.0429,0.2231 -0.0281,0.1409 -0.3183,0.4438 -0.4091,0.462 -0.1171,0.0229 -0.2019,0.007 -0.3283,0.0143 -0.0795,0.0281 -0.1593,0.057 -0.2393,0.0853 -0.2755,0.0993 -0.5748,-0.5048 -0.491,-0.7383 0.1866,-0.1243 0.3898,-0.1102 0.6015,-0.1608 0.1087,-0.0258 0.1857,-0.1156 0.2905,-0.1523 0.1102,-0.0386 0.2678,-0.0475 0.3805,-0.0715 z m 7.1493,-0.575 c -0.5348,0.1281 -1.2314,0.2387 -1.5103,0.3246 -0.0554,0.0149 -0.0884,0.1384 -0.0749,0.1767 0.0322,0.0923 0.0843,0.2042 0.0824,0.2939 -0.041,0.0339 -0.2616,0.007 -0.3478,0.0255 -0.1438,0.0318 -0.2067,0.0127 -0.3814,0.0155 -0.2542,0.004 -0.3478,-0.0144 -0.4518,0.0764 -0.0689,0.0604 0.0365,0.5439 -0.0611,0.7063 -0.1066,0.1766 -0.4396,0.1274 -0.4743,0.3305 0.0878,0.0929 0.1108,0.1823 0.0656,0.2886 0.096,0.0346 0.2859,-0.007 0.4601,-0.0236 0.1127,-0.0104 0.1848,0.025 0.261,-0.0412 0.0157,-0.0143 0.0323,-0.0283 0.0484,-0.0423 -0.0268,-0.2059 -0.0685,-0.3851 0.0461,-0.5963 0.019,-0.0362 0.0883,-0.2494 0.2713,-0.3228 0.1193,-0.0477 0.1638,-0.2476 0.2688,-0.2671 0.1592,-0.0304 0.2899,0.007 0.395,0.0532 0.2235,0.202 -0.0128,0.4768 0.1065,0.7385 0.1528,0.0922 0.8721,-0.2143 1.0414,-0.2783 0.002,-0.008 0.004,-0.0159 0.005,-0.0231 -0.2773,-0.2231 -0.6181,-0.4249 -0.5977,-0.7081 0.2546,-0.2768 0.787,0.0998 1.0919,0.2242 0.2281,0.0928 0.3574,-0.0234 0.5405,0.0531 0.2653,0.11 0.3892,1.3524 0.053,1.4812 -0.6897,-0.2189 -2.2313,0.1032 -3.0302,0.2947 -0.006,0.0137 -0.0125,0.0267 -0.0185,0.0396 0.0392,0.0633 0.0214,0.0925 0.007,0.158 0.3283,0.2676 0.73,0.4706 1.0948,0.7403 0.1165,0.0863 0.2463,0.2889 0.3788,0.7056 0.0813,0.2552 -0.2443,0.3362 -0.308,0.4134 -0.1424,0.0955 -0.2744,0.0201 -0.5554,0.0118 -0.1629,-0.004 -0.3866,-0.085 -0.5792,-0.131 -0.1902,-0.0464 -0.3488,-0.0581 -0.5612,-0.1302 -0.1702,-0.0581 -0.488,-0.103 -0.6681,-0.1625 -0.3686,-0.1222 -0.7455,-0.2123 -1.0982,-0.32 -0.0674,-0.007 -0.1311,-0.0154 -0.1481,-0.0288 -0.0397,0.003 -0.0803,-0.0252 -0.1093,-0.0494 l -0.006,0.007 -0.116,-0.052 0.005,0.002 c -0.005,-0.004 -0.0118,-0.009 -0.0194,-0.0139 -0.0319,-0.0124 -0.0624,-0.0245 -0.0927,-0.0377 -0.057,-0.024 -0.1124,-0.0488 -0.1677,-0.0726 -0.0551,-0.0154 -0.1026,-0.0212 -0.1266,-0.008 l -0.0558,-0.0461 -0.0625,0.0758 0.1514,0.1245 0.002,-0.003 9e-4,4e-4 c 0.0225,0.0957 0.2884,0.1158 0.3617,0.1758 l 0.009,-0.0105 0.1938,0.0735 c 0.0162,0.0352 0.1797,0.1241 0.2152,0.153 0.003,0.0277 0.01,0.054 0.0318,0.0735 v 0 l -0.004,-0.004 0.01,0.0874 -3e-4,9e-4 c 0.0267,0.0218 0.0196,0.0779 0.04,0.1055 l -0.0267,0.0323 c 0.0489,0.0404 0.037,0.0346 0.0419,0.0876 v 0 c 10e-4,0.0153 -0.0189,0.039 -0.0289,0.0508 l 0.008,0.006 -0.004,0.1326 -0.0523,0.0757 0.01,0.008 -0.0625,0.0759 -0.01,-0.008 -0.0106,0.0129 -0.1276,8e-4 -0.005,0.006 -0.1289,0.0112 -0.004,-0.003 -0.0316,0.0141 -0.0715,0.0279 -0.0352,-0.0286 c -0.0428,0.052 -0.0479,0.0294 -0.1102,0.0363 l -0.0277,-0.0229 -0.014,0.0172 c -0.2034,-0.0203 -0.238,-0.0437 -0.4313,-0.042 -0.0413,7e-4 -0.1106,0.003 -0.1637,0.026 -0.043,0.0184 -0.0497,0.0464 -0.0789,0.0747 -0.0344,0.0326 -0.0842,0.0714 -0.0606,0.117 0.0223,0.0425 0.1318,0.0886 0.1622,0.0997 l -0.001,-2e-4 c -0.0115,-0.009 0.0215,0.0124 0.0356,0.0161 l -0.005,-0.004 c 0.0388,0.0308 0.0997,0.0287 0.1366,0.0591 v 0 c 0.003,-0.004 0.3112,0.1172 0.5846,0.2396 0.2906,0.1302 0.6657,0.3247 0.6734,0.3264 l -0.006,-0.005 c 0.2602,0.2074 0.1645,0.1665 0.2836,0.4638 l -0.0155,0.0195 c 0.0427,0.0357 0.0409,0.0478 0.0458,0.0979 l -0.0329,0.0401 0.0412,0.0337 c -0.002,0.0949 0.0981,0.2874 0.0251,0.367 -0.1819,0.1998 -0.1002,0.1586 -0.3594,0.0693 -0.0996,-0.0338 -0.2517,-0.1586 -0.3451,-0.201 -0.1958,-0.0887 -0.3647,-0.1968 -0.5559,-0.2808 -0.2258,-0.0991 -0.4111,-0.2436 -0.614,-0.3322 -0.2122,-0.0927 -0.3075,-0.2297 -0.4825,-0.2865 v 0 c 0.007,-0.01 -0.1237,-0.006 -0.1402,-0.0193 -0.3727,0.4145 -0.9329,1.3403 -1.2619,1.7586 -0.0865,0.2564 -0.279,0.3538 -0.4717,0.502 l -0.008,-0.006 -0.1681,0.2005 0.005,-0.002 c -0.0121,0.006 -0.0199,0.0127 -0.0278,0.0224 l 0.004,-0.002 -0.184,0.1107 -0.0164,-0.0133 c -0.0538,0.0652 -0.1181,0.1282 -0.1547,0.0937 -0.1013,-0.0959 -0.4064,-0.3805 -0.7179,-0.6578 l 0.002,-0.007 -0.0529,-0.159 0.0148,-0.0181 -0.0401,-0.0324 c -0.003,-0.0305 -0.0676,-0.145 -0.0491,-0.168 l -0.004,-0.003 c -0.003,-0.04 -0.0589,-0.1655 -0.0866,-0.195 l 0.002,-0.002 -0.0515,-0.083 c 0,0 -0.0999,-0.1229 -0.1048,-0.1729 v 0 c -0.0178,-0.1873 -0.0833,-0.7498 -0.2233,-0.8658 0.001,-0.0246 -0.009,-0.0476 -0.0277,-0.0631 l 5e-4,4e-4 -0.0402,-0.1868 0.0333,-0.0583 -0.0515,-0.0547 c 0.002,-0.0105 0.004,-0.02 0.007,-0.0308 0.0817,-0.0156 0.2185,0.1533 0.4234,0.3699 0.1308,0.1383 0.2707,0.2251 0.409,0.3759 0.1078,0.1175 0.169,0.2701 0.2568,0.3789 0.0625,0.0781 0.1126,0.1429 0.1657,0.1837 0.0338,0.0254 0.081,0.0379 0.0951,0.0496 0.0157,-0.0195 0.0314,-0.0392 0.0481,-0.0601 0.2106,-0.2721 0.4655,-0.692 0.6381,-0.9158 0.1509,-0.1959 0.3808,-0.4742 0.5914,-0.7008 -0.2017,-0.1661 -1.5957,-0.7216 -1.6616,-0.6931 l 0.0218,-0.01 c -0.1789,-0.1469 -0.6383,-0.244 -0.6639,-0.5327 v 2e-4 c -0.0113,0.005 -0.005,-0.0247 -0.0122,-0.0348 l 0.008,-0.0103 c -0.0598,-0.0492 -0.0679,-0.1185 -0.1078,-0.1782 l 0.0184,-0.0225 c -0.0472,-0.0414 -0.1445,-0.2871 -0.1024,-0.3385 l -3e-4,-6e-4 -0.02,-0.1289 0.007,-0.009 -0.0284,-0.0584 v 0 c -0.0176,0.0219 -0.003,-0.0573 0.0149,-0.0795 l -0.0166,-0.0139 c -0.002,-0.0265 -0.002,-0.0396 -0.0136,-0.0654 0.0304,-0.0238 0.0953,-0.1612 0.1484,-0.149 0.125,-0.1511 0.3638,0.1504 0.474,0.1502 0.5171,0.2556 0.4602,0.3453 0.8953,0.5637 0.4816,0.2421 1.1072,0.5872 1.1822,0.6489 l 0.0383,0.0178 v 0 c 0.0951,0.0787 0.4276,0.1595 0.6301,0.1645 0.2397,0.005 0.3571,-0.1536 0.4849,-0.2461 l 0.0922,-0.008 c 0.0692,-0.0113 0.1333,-0.0431 0.1898,-0.0977 l 0.1532,-0.1284 c -0.1388,-0.1145 -0.2021,-0.2592 -0.3315,-0.3688 l 0.001,6e-4 -0.0707,-0.0709 0.009,-0.0109 c -0.1546,-0.1275 -0.2857,-0.1904 -0.3208,-0.3815 l 0.005,-0.006 -0.007,-0.006 0.0414,-0.1241 c 0.0381,0.008 0.1508,-0.003 0.1808,-0.0278 0.0429,0.0232 0.2113,0.0515 0.2535,0.0476 v 0 c 0.0302,-0.004 0.063,0.039 0.0832,0.0554 l 0.0321,-0.0375 -5e-4,-7e-4 v 0 c 0.0817,0.0664 0.4714,0.0375 0.5708,0.0254 l 0.0256,0.0213 0.0145,-0.0171 c 0.0621,0.0206 0.1218,0.0184 0.1754,0.0494 0.0132,-6e-4 0.0264,-10e-4 0.0392,-0.002 l 0.005,-0.006 0.0259,0.004 c 0.0633,-0.005 0.1279,-0.0129 0.1923,-0.013 0.0694,10e-5 0.144,0.0265 0.206,0.0409 0.8724,0.2061 1.7907,0.2875 2.5932,0.3073 0.007,-0.008 0.0137,-0.0163 0.0205,-0.0248 -4e-4,-0.005 -7e-4,-0.01 -0.002,-0.0147 -0.5611,-0.4887 -1.5258,-0.6802 -2.2282,-0.9237 -0.4606,-0.1598 -1.0328,-0.3665 -1.4299,-0.5063 -0.0599,-0.009 -0.1306,-0.0515 -0.2008,-0.1132 v 0 c -0.0102,-0.006 -0.0206,-0.0101 -0.0312,-0.0124 -0.0134,-0.0104 -0.0258,-0.0181 -0.0466,-0.0196 -0.005,-0.002 -0.0106,-0.003 -0.0165,-0.004 -0.01,-0.007 -0.0268,-0.015 -0.038,-0.0182 -0.006,-0.004 -0.0121,-0.007 -0.0199,-0.01 -0.009,-0.008 -0.0163,-0.0135 -0.0276,-0.0181 l -0.1814,-0.1499 -0.0114,0.0147 c -0.0263,-0.0223 -0.0487,-0.0438 -0.0793,-0.0592 l -0.0931,-0.0771 c -0.005,-0.005 -0.01,-0.0114 -0.0141,-0.0162 -0.007,-0.0227 -0.0187,-0.0377 -0.0364,-0.0524 l 0.001,-0.002 -0.342,-0.2812 c -0.004,-0.009 -0.009,-0.0167 -0.0156,-0.0236 -0.004,-0.0103 -0.01,-0.0199 -0.018,-0.0284 -0.006,-0.0155 -0.0148,-0.0354 -0.0246,-0.0468 -0.002,-0.0192 -0.0113,-0.0377 -0.0272,-0.0511 v 0 l 0.0162,0.0132 c -7e-4,-0.01 -0.002,-0.0182 -0.004,-0.0275 l 0.0131,-0.0162 -7e-4,-7e-4 0.0884,-0.1073 c 0.007,-0.008 0.0113,-0.0171 0.014,-0.0255 0.006,-0.007 0.0101,-0.0152 0.0128,-0.0238 l 0.0448,-0.0542 -0.0254,0.002 v 0 c 0.0147,-0.002 0.0291,-0.007 0.0416,-0.0168 0.006,-0.003 0.0107,-0.005 0.0164,-0.008 h 3e-4 c 0.0136,-0.0161 0.0541,-0.0165 0.0726,-0.0181 v 0 c 0.005,-7e-4 0.0215,0.004 0.0314,0.004 0.0144,0.003 0.0307,0.006 0.0454,0.007 l 0.0704,0.0579 0.0297,-0.0361 c 0.009,0.001 0.019,0.002 0.0285,-2e-4 0.01,0.004 0.0207,0.007 0.0325,0.008 0.008,0.005 0.0218,0.0101 0.0306,0.0129 0.009,0.007 0.0172,0.0129 0.028,0.0162 0.0156,0.0127 0.0334,0.03 0.0521,0.0364 0.005,0.004 0.0104,0.008 0.0158,0.0108 l 0.08,0.0665 0.0176,-0.022 c 0.006,0.003 0.0133,0.005 0.0225,0.007 0.0138,0.009 0.0487,0.0211 0.0657,0.0249 0.0106,0.005 0.0227,0.008 0.0356,0.009 0.0106,0.005 0.0232,0.008 0.0364,0.008 0.02,0.004 0.0256,0.01 0.0415,0.0231 l 0.008,-0.01 c 0.007,10e-4 0.0146,0.002 0.0217,0.002 0.009,0.003 0.0175,0.005 0.0269,0.005 0.0113,0.006 0.0248,0.009 0.0385,0.008 0.0121,0.004 0.0205,0.008 0.0334,0.0112 0.0119,0.006 0.0254,0.009 0.0391,0.008 0.009,0.002 0.0175,0.004 0.0254,0.006 0.009,0.007 0.0182,0.0124 0.0269,0.0199 l 0.003,-0.004 c 0.008,0.002 0.0157,0.004 0.0234,0.003 0.008,0.004 0.018,0.007 0.0283,0.008 0.008,0.003 0.0192,0.008 0.0269,0.01 0.0191,0.005 0.0364,0.016 0.0579,0.0165 0.006,0.004 0.015,0.007 0.0237,0.01 0.0526,0.0105 0.1045,0.0215 0.1544,0.0291 0.6514,0.0986 1.3759,0.7789 1.8432,-0.1135 -0.0133,-0.0616 0.0304,-0.287 -0.0641,-0.3158 -0.1379,0.005 -0.3614,0.0409 -0.4991,0.0465 -0.1338,-0.007 -0.4236,0.0246 -0.6248,-0.0267 -0.0838,-0.0211 -0.1577,-0.0455 -0.2082,-0.0722 -3e-4,-0.005 -10e-4,-0.0102 -10e-4,-0.0151 0.0545,-0.0678 0.1172,-0.1487 0.1887,-0.1968 0.3109,-0.2065 0.7556,-0.2348 1.0935,-0.3233 -0.0215,-0.1054 -0.0609,-0.2437 -0.0697,-0.3851 -0.0168,-0.2707 -0.1955,-0.075 -0.3394,-0.1079 -0.1445,-0.0333 0.051,0.0419 0.002,0.2062 -0.0501,0.1651 -0.4615,0.1858 -0.5713,0.2154 -0.1103,0.0297 -0.2103,-0.0357 -0.3045,0.0581 -0.1953,0.1939 -0.3801,0.6815 -0.7366,0.456 -0.0655,-0.0406 -0.4689,-0.5629 -0.4011,-0.6057 0.0405,-0.0976 0.1742,-0.2731 0.2115,-0.3187 0.1387,-0.1682 0.3566,-0.4902 0.421,-0.7511 0.0266,-0.1079 -0.006,-0.2098 -0.0221,-0.2882 -0.0101,-0.0472 0.0372,-0.0595 0.0611,-0.0669 0.2052,0.138 0.3909,0.5129 0.4033,0.7347 0.1361,0.2863 0.5417,-0.5036 0.7137,-0.635 0.1399,-0.108 0.2991,0.0296 0.335,0.1102 0.0361,0.081 6e-4,0.3948 -0.0919,0.5069 -0.0923,0.1122 0.1384,0.1653 0.1384,0.1653 l 0.2335,-0.3047 c 0,0 0.0478,-0.1832 -0.0785,-0.3213 -0.0866,-0.095 -0.1453,-0.4247 -0.0997,-0.5634 0.0585,-0.1821 0.3011,0.1085 0.3479,0.0975 0.164,0.0153 0.2793,0.07 0.4374,0.1501 0.1143,0.0584 0.166,0.1094 0.2672,0.1715 0.2272,0.1387 0.0102,0.6429 0.2728,0.6596 0.6407,-0.1977 1.3434,-0.3834 1.9835,-0.6259 l 1e-4,4e-4 0.0657,-0.0255 c 0.0585,-0.01 0.2207,-0.0269 0.2441,-0.0625 0.009,-0.003 0.0182,-0.008 0.0257,-0.0143 0.0131,-0.005 0.0424,-0.0224 0.0515,-0.0312 0.0668,-0.0388 0.1369,-0.0485 0.2019,-0.0999 0.009,-0.004 0.0253,-0.0131 0.0329,-0.0195 0.0161,-0.006 0.036,-0.0189 0.0465,-0.0321 0.0727,-0.0507 0.222,-0.1597 0.2201,-0.2482 -7e-4,-0.0241 0.009,-0.0316 0.0218,-0.0523 0.0911,-0.1486 0.0682,-0.0493 0.1008,-0.1941 0.008,-0.0115 0.0227,-0.0285 0.0265,-0.0423 l 0.0216,-0.033 c 0.004,0.002 0.008,0.003 0.0131,0.004 0.1147,0.0759 0.0413,0.002 0.135,0.0634 0.006,0.008 0.0123,0.0151 0.0208,0.0209 0.004,0.006 0.009,0.0116 0.0148,0.0166 0.0205,0.0411 0.1726,0.1693 0.1835,0.1763 0.003,0.005 0.006,0.009 0.01,0.0126 0.005,0.0147 0.0148,0.0259 0.0259,0.0337 0.0536,0.0415 0.0222,0.0144 0.0563,0.0702 0.0209,0.0345 0.0528,0.0677 0.0808,0.0866 0.009,0.008 0.0138,0.0164 0.0251,0.0248 0.004,0.008 0.01,0.0159 0.0163,0.0227 0.003,0.005 0.006,0.0107 0.01,0.0156 0.004,0.0222 0.0159,0.0382 0.0293,0.0553 0.004,0.009 0.01,0.0189 0.0177,0.0273 0.005,0.0156 0.0136,0.03 0.0271,0.0412 0.007,0.0145 0.0169,0.0295 0.0291,0.0401 0.004,0.006 0.0102,0.012 0.0162,0.0173 0.006,0.008 0.013,0.0156 0.0216,0.0217 0.002,0.003 0.005,0.006 0.007,0.009 0.002,0.006 0.004,0.0116 0.007,0.0171 0.005,0.0226 0.008,0.0332 0.0188,0.0533 0.002,0.004 0.005,0.02 0.006,0.025 0.004,0.0197 0.0146,0.0342 0.0189,0.0518 0.004,0.0179 0.007,0.0381 0.0153,0.0539 0.005,0.0295 0.0147,0.0186 0.007,0.0457 -0.003,0.012 -0.004,0.0239 -0.002,0.0357 -0.002,0.0185 0.004,0.035 0.007,0.0531 -0.002,0.0148 -0.003,0.0274 2e-4,0.0424 -2e-4,0.004 -7e-4,0.008 -8e-4,0.0117 -0.003,0.0108 -0.004,0.0223 -0.002,0.034 -10e-4,0.009 -10e-4,0.0236 -4e-4,0.0336 -0.003,0.0105 -0.004,0.0211 -0.003,0.0321 -0.007,0.0191 -0.007,0.0399 1e-4,0.0589 8e-4,0.0117 -0.007,0.0249 -0.004,0.0461 -0.003,0.0134 -0.003,0.0276 -1e-4,0.0402 -8e-4,0.008 -0.002,0.0163 -0.002,0.0244 -0.004,0.0141 -0.008,0.0287 -0.007,0.0435 -0.003,0.009 -0.005,0.0208 -0.005,0.0304 l -0.0521,0.0793 c -0.0176,0.006 -0.0285,0.0208 -0.0398,0.0378 -0.007,0.011 -0.017,0.0157 -0.0254,0.0274 -0.0168,0.009 -0.0389,0.0504 -0.0707,0.0713 -0.0181,0.009 -0.0385,0.0347 -0.058,0.0387 v 0 c -0.0141,0.003 -0.0283,0.005 -0.0411,0.0127 -0.005,10e-4 -0.01,0.002 -0.0142,0.004 -0.0546,0.003 -0.1772,0.007 -0.2262,0.0325 -0.0117,-7e-4 -0.0432,0.002 -0.0542,0.006 -0.0291,-0.002 -0.0256,-0.004 -0.0515,0.0119 -0.01,-0.002 -0.0284,5e-4 -0.0379,0.004 -0.0139,-0.003 -0.0282,-0.004 -0.0415,-5e-4 -0.0112,-3e-4 -0.0221,5e-4 -0.0339,4e-4 -0.1362,-0.0308 -0.2704,-0.0204 -0.4124,-0.003 -0.0148,-0.001 -0.0343,-0.009 -0.0502,-0.008 -0.008,-2e-4 -0.0161,-0.002 -0.0239,-0.002 -0.009,-0.003 -0.0184,-0.005 -0.0272,-0.004 l -0.0892,-0.003 z"
         style="fill:#004d99;fill-rule:evenodd"
         id="path24" />
      <path
         d="m 39.2781,16.9816 c 0.228,-0.042 0.4138,-0.1552 0.6027,-0.2668 0.1169,-0.0691 0.24,-0.1461 0.3695,-0.1713 0.429,-0.0829 0.7211,0.3055 0.5589,0.7296 -0.1059,0.2767 -0.2168,0.5515 -0.3221,0.8285 -0.0368,0.0972 -0.0635,0.1983 -0.1039,0.3267 0.1252,0.0456 0.2302,0.0884 0.3382,0.1218 0.1108,0.0344 0.225,0.0586 0.3372,0.0895 0.3248,0.0891 0.3934,0.1525 0.4005,0.3677 0.008,0.2413 -0.1808,0.5054 -0.4113,0.5812 -0.2645,0.0871 -0.5001,0.0382 -0.7109,-0.1416 -0.1189,-0.1011 -0.2387,-0.2013 -0.3581,-0.3021 -0.2559,0.2992 -0.4994,0.5765 -0.7346,0.8606 -0.2129,0.2571 -0.6195,0.3281 -0.9044,0.1475 -0.0179,-0.0112 -0.0339,-0.0254 -0.0509,-0.0379 -0.3636,-0.269 -0.3541,-0.3616 0.0309,-0.5991 0.2698,-0.1663 0.5312,-0.3474 0.7872,-0.5345 0.099,-0.0725 0.173,-0.1795 0.2596,-0.2724 -0.0523,-0.1251 -0.1038,-0.2289 -0.1398,-0.3378 -0.0664,-0.2021 -0.0104,-0.279 0.1987,-0.2832 0.1138,-0.002 0.2279,8e-4 0.3617,0.002 0.0586,-0.2193 0.112,-0.4194 0.162,-0.6064 -0.1528,-0.1293 -0.2889,-0.1412 -0.4383,-0.0703 -0.0662,0.0314 -0.1443,0.0818 -0.2066,0.0696 -0.297,-0.0578 -0.3909,0.1486 -0.5336,0.3428 -0.4288,0.5821 -0.7733,1.2104 -1.1036,1.8497 -0.1401,0.2714 -0.3072,0.5294 -0.4734,0.7862 -0.0551,0.0853 -0.1412,0.1531 -0.2208,0.2199 -0.106,0.0888 -0.2191,0.0806 -0.3107,-0.0207 -0.1202,-0.1326 -0.2453,-0.2643 -0.3406,-0.4144 -0.0867,-0.1363 -0.1004,-0.2958 -0.0354,-0.4576 0.1392,-0.3469 0.3263,-0.6685 0.6072,-0.9116 0.5056,-0.4381 0.8873,-0.9617 1.182,-1.5572 0.0697,-0.1406 0.169,-0.2665 0.2693,-0.4223 -0.0604,-0.0892 -0.122,-0.1843 -0.1879,-0.2764 -0.0493,-0.0685 -0.1157,-0.1269 -0.1546,-0.2005 -0.1188,-0.224 -0.0246,-0.4256 0.2216,-0.4714 0.1453,-0.0271 0.2952,-0.0275 0.4414,-0.0514 0.3085,-0.0506 0.5128,-0.2512 0.5869,-0.5515 0.0262,-0.1069 0.0155,-0.19 -0.0891,-0.2398 -0.095,-0.0451 -0.1497,0.01 -0.2134,0.0788 -0.353,0.3805 -0.6321,0.4139 -1.0513,0.1349 0.0683,-0.1637 0.1369,-0.3278 0.2033,-0.4868 -0.2302,-0.1682 -0.235,-0.1733 -0.3971,-0.0102 -0.1143,0.1149 -0.227,0.1843 -0.408,0.0826 0.0174,-0.1128 0.0392,-0.2238 0.0505,-0.336 0.0113,-0.1125 0.0123,-0.226 0.0175,-0.3335 -0.1631,-0.0493 -0.2182,0.0561 -0.2816,0.1339 -0.0463,0.0566 -0.0876,0.1227 -0.1116,0.1912 -0.3241,0.9276 -0.8852,1.7324 -1.338,2.5932 -0.3248,0.6178 -0.6448,1.2383 -0.9585,1.8617 -0.2469,0.4909 -0.4696,0.9939 -0.724,1.4806 -0.2151,0.4116 -0.4594,0.8078 -0.6931,1.2095 -0.0316,0.0543 -0.0733,0.1033 -0.1153,0.1503 -0.2789,0.3094 -0.4066,0.285 -0.5708,-0.105 -0.0246,-0.058 -0.0516,-0.1188 -0.0916,-0.166 -0.215,-0.2531 -0.1847,-0.5271 -0.0731,-0.8066 0.11,-0.2748 0.243,-0.5415 0.334,-0.8222 0.0467,-0.1443 0.1775,-0.0736 0.2408,-0.1494 0.1624,-0.1948 0.3583,-0.3684 0.4879,-0.5823 1.1194,-1.8468 2.2265,-3.7009 3.3391,-5.5516 0.077,-0.1282 0.136,-0.2473 0.1264,-0.411 -0.0131,-0.2233 0.1602,-0.3753 0.323,-0.4784 0.1247,-0.0792 0.2029,-0.1729 0.2776,-0.2869 0.2204,-0.3357 0.4459,-0.668 0.6638,-1.0051 0.0415,-0.064 0.0586,-0.144 0.1143,-0.2863 -0.213,0.0837 -0.358,0.1365 -0.4997,0.1974 -0.4166,0.1794 -0.8328,0.3603 -1.2473,0.5447 -0.106,0.0474 -0.2046,0.1107 -0.3071,0.1661 -0.4386,0.2374 -0.8928,0.3292 -1.3713,0.1293 -0.2942,-0.123 -0.384,-0.2639 -0.3675,-0.5359 0.5717,-0.1448 1.1517,-0.2567 1.7073,-0.4426 0.5546,-0.1853 1.1147,-0.3767 1.6679,-0.7099 -0.3747,-0.2414 -0.7048,-0.4601 -1.0416,-0.6686 -0.1658,-0.1028 -0.2702,-0.2356 -0.275,-0.433 -0.004,-0.1601 0.0831,-0.2413 0.239,-0.1993 0.3732,0.1002 0.7513,0.0955 1.1325,0.1078 0.2253,0.007 0.4622,0.0754 0.668,0.1716 0.2922,0.1365 0.341,0.3109 0.2291,0.6681 0.1074,-0.0354 0.1923,-0.054 0.2685,-0.0906 0.257,-0.1234 0.5049,-0.2671 0.7671,-0.3773 0.4113,-0.1729 0.5548,-0.0403 0.6723,0.2658 0.0227,0.0593 0.0536,0.1156 0.0748,0.1754 0.113,0.3186 -0.0148,0.5734 -0.3376,0.6651 -0.3032,0.0861 -0.6105,0.1583 -0.9108,0.2526 -0.1046,0.033 -0.2233,0.0924 -0.2855,0.1768 -0.4528,0.6117 -0.8933,1.2327 -1.336,1.8519 -0.0242,0.0337 -0.0356,0.0764 -0.0563,0.1228 0.0428,0.0582 0.0799,0.1237 0.1312,0.1747 0.1504,0.1494 0.2276,0.1378 0.346,-0.0361 0.0772,-0.1134 0.1529,-0.2293 0.2416,-0.3337 0.339,-0.4 0.6301,-0.8213 0.6489,-1.3711 0.1981,-0.124 0.3819,-0.0587 0.5448,0.0383 0.0623,0.0371 0.1146,0.1618 0.1039,0.237 -0.0304,0.216 -0.0957,0.4271 -0.1489,0.6473 0.2138,0.153 0.241,0.1614 0.411,-0.004 0.1279,-0.1242 0.254,-0.2603 0.3407,-0.414 0.0717,-0.1276 0.1599,-0.1537 0.2815,-0.1461 0.2266,0.0144 0.4182,0.1816 0.5048,0.4241 0.0817,0.2286 -0.0104,0.3893 -0.1879,0.521 -0.1699,0.1259 -0.3294,0.2708 -0.5133,0.3712 -0.3698,0.2027 -0.5974,0.5297 -0.819,0.8665 -0.0222,0.0336 -0.0289,0.0776 -0.0454,0.1242 0.1268,0.1233 0.2436,0.1143 0.3531,-0.009 0.0985,-0.1106 0.1803,-0.2382 0.2882,-0.3379 0.0982,-0.0907 0.2129,-0.1792 0.3364,-0.2229 0.1892,-0.0668 0.312,0.0218 0.3893,0.213 0.0461,0.114 0.105,0.2258 0.176,0.3259 0.1236,0.1741 0.1217,0.3214 -0.0464,0.4725 -0.1257,0.1127 -0.2695,0.2051 -0.4017,0.3109 -0.2057,0.1646 -0.2163,0.2059 -0.1374,0.4568 0.0801,0.2545 0.0418,0.3651 -0.1935,0.4971 -0.2027,0.1138 -0.4148,0.2113 -0.6181,0.3243 -0.2392,0.1329 -0.3733,0.3329 -0.4123,0.608 z m -0.4413,-2.8067 c 0.1252,-0.2226 0.2438,-0.4099 0.335,-0.6096 0.0264,-0.0579 -8e-4,-0.1817 -0.0479,-0.2195 -0.0403,-0.032 -0.1607,-0.006 -0.2177,0.0336 -0.2079,0.1453 -0.2926,0.3759 -0.4036,0.6121 0.1073,0.0591 0.1981,0.1088 0.3342,0.1834 z m -1.2857,1.8537 c -0.0429,0.1626 -0.0716,0.2712 -0.0899,0.3404 0.0776,0.2012 0.2092,0.379 0.1919,0.5407 -0.0195,0.1805 -0.1479,0.3701 -0.2762,0.5132 -0.2378,0.2656 -0.5555,0.3191 -1.0313,-0.0612 0.1416,-0.6177 0.4891,-1.0143 1.2055,-1.3331 z"
         style="fill:#004d99;fill-rule:evenodd"
         id="path26" />
      <path
         d="m 21.6686,13.6858 c 0.0316,-0.002 0.0199,-0.031 0.1573,-0.008 0.1108,0.0533 0.1159,0.0453 0.2282,0.0754 0.1124,0.03 0.3177,0.1814 0.511,0.3154 0.1934,0.134 0.4641,0.4817 0.5388,0.7811 0.0746,0.2993 0.0545,0.671 -0.0123,0.9323 -0.0164,0.064 -0.1147,0.3045 -0.1857,0.6101 -0.0821,0.3532 -0.1442,0.8008 -0.2658,1.2778 -0.0593,0.232 -0.1635,0.5073 -0.218,0.7236 -0.0604,0.2397 -0.0907,0.4802 -0.1392,0.6622 -0.0574,0.2153 -0.1253,0.38 -0.15,0.4553 -0.1368,0.4173 -0.3105,0.9856 -0.4199,1.0611 0,0 0.041,-0.745 0.0668,-1.3055 0.0112,-0.2424 0.0195,-0.4504 0.0204,-0.5486 -0.008,-0.2847 0.055,-0.5842 0.0594,-0.8648 0.0117,-0.7623 -0.008,-1.5028 -0.0149,-2.323 0.0102,-0.3024 -0.0302,-0.5715 -0.0885,-0.8596 -0.0587,-0.2903 -0.2247,-0.8775 -0.0876,-0.9844 z m 4.2461,8.7569 0.2991,0.3137 0.0234,0.0147 c 0.1117,0.1742 0.2164,0.3863 0.2827,0.5449 0.0356,0.0852 0.0873,0.1396 0.1212,0.1775 0.0477,0.0533 0.1093,0.0251 0.2434,-0.0255 0.0727,-0.0274 0.1375,0.005 0.202,-0.004 0.085,-0.0118 0.1436,0.0324 0.1755,0.0582 0.0377,0.0305 0.1467,0.1174 0.1794,0.2087 0.0399,0.1117 0.0422,0.2356 0.0558,0.3085 0.0248,0.1327 0.0182,0.2259 0.0182,0.2259 -0.004,0.1768 -0.004,0.2636 0.0241,0.4221 0.0378,0.2153 0.0328,0.3757 0.0328,0.3757 0.0857,0.0318 0.1347,-0.0245 0.1952,-0.0831 0.159,-0.1542 0.2861,-0.4725 0.2861,-0.4725 0.0887,-0.2918 0.2112,-0.3045 0.2964,-0.3663 0.0831,-0.0601 0.4044,-0.002 0.5752,0.1375 0.1854,0.151 0.1863,0.4101 0.1231,0.4996 -0.1706,0.2417 -0.3339,0.4198 -0.5083,0.6609 -0.1266,0.175 -0.2644,0.4125 -0.3893,0.5902 -0.0109,0.0395 -0.2109,0.2013 -0.2586,0.4399 -0.0417,0.2087 -0.3833,0.3747 -0.4875,0.3523 -0.1947,-0.0417 -0.7014,-0.172 -0.7715,-0.3809 -0.0576,-0.1715 -0.1406,-0.4613 -0.1616,-0.5077 -0.0258,-0.0571 -0.007,-0.5506 -0.1384,-0.8315 -0.0874,-0.1862 -0.1583,-0.2969 -0.2001,-0.4195 -0.0279,-0.082 -0.0561,-0.1019 -0.1198,-0.1215 0,0 -0.1154,0.007 -0.2476,0.0172 -0.0836,0.007 -0.179,0.0875 -0.267,0.0816 -0.056,-0.004 -0.1984,0 -0.2418,-0.0144 -0.0551,-0.0185 -0.0746,-0.0805 -0.0164,-0.1814 0.0175,-0.0303 0.0305,-0.1214 0.0611,-0.1572 0.0267,-0.0313 0.0606,-0.0678 0.0812,-0.0923 0.014,-0.0166 0.0505,-0.0525 0.0612,-0.0636 0.1351,-0.1407 0.3268,-0.2345 0.3268,-0.2345 l -0.0149,-0.0405 c -0.0247,-0.0544 -0.0366,-0.0918 -0.0955,-0.1522 -0.0455,-0.0466 -0.1458,-0.1211 -0.2275,-0.2166 -0.067,-0.0782 -0.2799,-0.4621 -0.3919,-0.7125 l -0.1528,-0.2214 5e-4,-3e-4 -0.002,-0.003 -0.0672,0.0792 c -0.053,0.094 -0.0523,0.2404 -0.1489,0.3138 0.0133,0.0192 -0.12,0.1792 -0.0899,0.2227 l -0.0291,0.1034 -0.0145,0.01 c 0.0242,0.049 -0.008,0.0729 0.001,0.1211 -0.032,0.0221 -0.2585,0.8253 -0.2893,0.7806 v 0 c -0.002,0.0124 -0.004,0.0223 -0.003,0.0335 -0.0965,0.081 -0.1883,0.0973 -0.3095,0.1294 -0.0257,-0.0372 -0.1252,0.0276 -0.1675,0.0442 l -0.0707,-0.0363 -0.004,0.002 c -0.2735,-0.1886 -0.3401,-0.495 -0.3111,-0.7945 0.007,-0.005 0.0437,-0.2427 0.0362,-0.2689 0.0214,-0.0651 -0.0495,-0.0837 -0.0121,-0.2356 l -5e-4,-9e-4 c 0.0273,-0.0715 0.0509,-0.1867 0.0275,-0.2616 l -0.002,-0.0538 c 0.0237,-0.0769 0.0294,-0.1443 -0.003,-0.2418 0.007,-0.0308 7e-4,-0.0563 0.0227,-0.0828 -0.006,-0.0145 0.0424,-0.2327 0.0487,-0.2775 0.009,-0.0789 0.0336,-0.1995 0.0505,-0.2788 0.0244,-0.0168 0.0462,-0.2381 0.0516,-0.2795 0.003,-0.002 0.007,-0.4439 0.009,-0.4942 l 0.002,-0.0232 0.0355,-0.1251 c -0.0322,-0.0515 0.0484,-0.2829 0.0458,-0.2867 0.006,-0.0336 0.0409,-0.2937 0.0405,-0.2942 l 0.0179,-0.1008 c -0.0155,-0.0309 -0.0116,-0.0606 -0.0271,-0.0915 -0.0147,-0.0295 -0.0489,-0.0603 -0.0636,-0.0898 l -0.0825,0.057 c 0.027,0.0392 -0.0659,0.1673 -0.1081,0.1964 0.004,0.007 -0.162,0.3558 -0.216,0.393 0.0132,0.0191 -0.1006,0.3134 -0.1335,0.3361 0.0101,0.0146 -0.2229,0.3829 -0.1857,0.4369 -0.013,0.0569 -0.1534,0.3073 -0.1495,0.3129 -0.053,0.0437 -0.152,0.3092 -0.1297,0.3416 -0.0145,0.0317 -0.016,0.0942 -0.0436,0.1133 l 0.003,0.005 c -0.0236,0.0443 -0.1137,0.1882 -0.0941,0.2166 -0.0176,0.0297 -0.012,0.0933 -0.0428,0.1145 l 0.002,0.003 c -0.0375,0.1219 -0.1076,0.1972 -0.126,0.3271 l -0.009,0.006 0.006,0.009 -0.0295,0.0815 c -0.0179,0.0974 -0.0786,0.2502 -0.1122,0.3695 l -0.008,0.0387 c -0.0138,0.0471 -0.0698,0.2519 -0.0515,0.2784 -0.0179,0.0301 -0.008,0.0949 -0.0406,0.1176 l 0.003,0.005 c -0.0411,0.2239 -0.2573,0.5905 -0.2855,0.7594 v 0 c -0.0228,0.1248 -0.4107,0.424 -0.5309,0.4413 -0.005,-0.008 -0.1922,0.0274 -0.2197,0.0347 -0.004,-0.006 -0.2617,0.0806 -0.3054,0.087 -0.002,-0.002 -0.5411,0.16 -0.6142,0.1691 -0.0104,-0.0151 -0.2075,0.0668 -0.234,-0.0567 l -0.0614,-0.284 c 0.0394,-0.0525 0.0371,-0.3615 0.0905,-0.3984 l -0.003,-0.005 c 0.0124,-0.0504 0.1257,-0.3473 0.122,-0.3527 0.0157,-0.0319 0.1215,-0.177 0.1141,-0.1877 l 0.0361,-0.0438 6e-4,7e-4 c 0.161,-0.1466 1.4075,-2.2769 1.4074,-2.2771 0.1336,-0.1678 0.235,-0.5273 0.4069,-0.6459 l -0.004,-0.006 c 0.0244,-0.0527 0.2981,-0.4505 0.2959,-0.4537 0.0276,-0.0651 0.2959,-0.4538 0.2937,-0.4569 0.0295,-0.0379 0.2013,-0.238 0.1899,-0.2545 0.1193,-0.0823 0.1297,-0.3074 0.2281,-0.3753 l -0.003,-0.005 c 0.0307,-0.0603 0.0513,-0.1504 0.1113,-0.1917 l -0.004,-0.005 c 0.0257,-0.0371 0.0517,-0.0881 0.0231,-0.1306 l 0.006,-0.004 -0.351,-0.5087 c 0.0169,-0.0326 0.1375,-0.3304 0.135,-0.334 0.0136,-0.0483 0.426,-0.7489 0.4458,-0.7625 -0.053,-0.01 0.0836,-0.0342 0.1215,-0.0785 l 0.0813,0.0443 c 0.0141,0.0329 0.0503,0.0443 0.0701,0.0729 0.0188,-0.013 0.0818,0.0902 0.0952,0.1075 l 0.004,-0.0226 c -0.005,0.0269 0.2064,0.3582 0.2427,0.4109 l 0.0622,-0.0863 c 0.0885,-0.0263 0.5681,-0.4536 0.5346,-0.5021 0.202,-0.1394 0.1563,-0.1073 0.3607,-0.1323 l 0.1179,0.0819 c 0.2895,0.1554 0.0357,0.4427 0.063,0.4822 -0.022,0.0654 -0.0269,0.2247 -0.0687,0.2535 0.0283,0.041 -0.0565,0.4049 -0.0765,0.4187 l 0.008,0.011 -0.2437,0.4371 -9e-4,6e-4 c 0.008,0.0114 -0.0441,0.3916 -0.0765,0.4187 0.009,0.0131 0.0842,0.5816 0.2144,0.7703 -0.002,0.002 0.0977,0.1651 0.106,0.1789 l 0.1462,-0.3179 -3e-4,-4e-4 c 0.117,-0.0807 0.1126,-0.4194 0.2341,-0.5033 -0.0242,-0.0351 0.3539,-0.3122 0.3383,-0.315 0.273,-0.108 0.6937,-0.1626 0.8878,0.1187 0.006,-0.0356 0.1303,0.2287 0.0481,0.2855 0.022,0.0318 -0.003,0.0695 -0.007,0.1267 l 0.001,0.6415 c -0.005,0.003 2e-4,0.1061 0.007,0.117 -0.0247,0.0171 -0.0446,0.3536 -0.0467,0.4189 l -0.004,0.1247 c -0.0229,0.0158 -0.004,0.2908 -0.005,0.359 -0.0515,0.1247 -0.0562,0.1972 -0.1106,0.294 -0.0492,0.0876 -0.1528,0.17 -0.2365,0.2776 -0.12,0.2059 -0.1768,0.2198 -0.3598,0.3449 z m 0.0136,-1.717 c -0.0227,0.216 0.0247,0.3019 -0.0391,0.4729 0.0334,0.0485 -0.0859,0.3002 -0.1198,0.356 l -10e-4,0.007 -0.1577,0.1152 -0.2984,-0.4325 c 0.0168,-0.0116 0.009,-0.0745 0.0707,-0.1662 l 0.002,0.007 0.1514,-0.3982 0.0959,-0.1549 -9e-4,0.002 0.0693,-0.1383 0.0826,-0.0569 0.1069,0.0497 c -0.0103,0.1007 0.0245,0.2164 0.0386,0.3377 z m -1.9725,2.2356 c -0.0785,-0.1616 -0.0257,-0.5759 -0.0334,-0.7295 -0.004,-0.1137 0.0655,-0.3468 0.0765,-0.4187 l 0.001,-10e-4 c 0.0101,-0.0628 0.0891,-0.3975 0.0751,-0.4177 l 0.0356,-0.0446 0.0469,-0.0124 0.0571,0.0712 0.171,0.2593 c 0.0456,0.1051 0.1488,0.1902 0.0311,0.3909 -0.0172,0.0439 -0.007,0.1112 -0.0761,0.25 -0.003,0.002 -0.0557,0.099 -0.1071,0.2184 -0.0333,0.0774 -0.0561,0.1631 -0.0989,0.2435 -0.0419,0.0788 -0.0863,0.1504 -0.1291,0.1975 -0.0295,0.0183 -0.0374,0.0191 -0.0501,-0.007 z"
         style="fill:#004d99;fill-rule:evenodd"
         id="path28" />
   </g>
   <g id="1929-number">
      <path
         d="m 30.4781,39.4943 v -0.581 c 0.3301,-0.005 0.5541,-0.0485 0.6719,-0.1296 0.1179,-0.0811 0.1769,-0.23 0.1769,-0.4455 v -2.5253 c 0,-0.2325 -0.0496,-0.3838 -0.1474,-0.454 -0.0979,-0.0715 -0.3313,-0.1101 -0.7014,-0.1175 v -0.5448 c 0.3348,-0.005 0.6312,-0.0302 0.8912,-0.0762 0.2598,-0.046 0.4903,-0.286 0.6931,-0.378 h 0.6462 v 4.0958 c 0,0.2153 0.0613,0.3647 0.1827,0.4455 0.1224,0.0813 0.356,0.1247 0.7014,0.1296 v 0.581 z"
         style="fill:#004d99;fill-rule:evenodd"
         id="path31" />
      <path
         d="m 40.7434,37.2976 c -0.2267,0.1403 -0.4592,0.2441 -0.6962,0.3101 -0.2352,0.0669 -0.4872,0.1001 -0.7562,0.1001 -0.5981,0 -1.0868,-0.1525 -1.465,-0.4567 -0.3795,-0.3038 -0.5686,-0.6967 -0.5686,-1.1775 0,-0.5224 0.2225,-0.9459 0.6681,-1.2693 0.4453,-0.3246 1.0293,-0.487 1.7507,-0.487 0.7957,0 1.4091,0.2148 1.8405,0.6457 0.4326,0.4295 0.6483,1.0423 0.6483,1.8354 0,0.8533 -0.2381,1.516 -0.7157,1.9883 -0.4774,0.4722 -1.1458,0.7078 -2.0073,0.7078 -0.5584,0 -1.0165,-0.0953 -1.3765,-0.2843 -0.36,-0.1894 -0.5394,-0.4198 -0.5394,-0.692 0,-0.1698 0.059,-0.3038 0.1766,-0.4042 0.1176,-0.1001 0.2747,-0.1499 0.472,-0.1499 0.3081,0 0.5267,0.1868 0.6514,0.5612 0.017,0.0476 0.0292,0.0831 0.0377,0.1038 0.0323,0.1026 0.0856,0.172 0.1567,0.21 0.0729,0.0366 0.1951,0.055 0.3643,0.055 0.4218,0 0.7534,-0.1417 0.9947,-0.4249 0.2423,-0.2829 0.3639,-0.6735 0.3639,-1.1716 z m -0.0742,-1.273 c 0,-0.322 -0.0825,-0.5712 -0.2478,-0.7469 -0.1652,-0.1769 -0.3991,-0.2648 -0.7004,-0.2648 -0.3152,0 -0.559,0.0867 -0.7325,0.2614 -0.1735,0.1732 -0.2605,0.4198 -0.2605,0.7358 0,0.3076 0.0839,0.5505 0.2506,0.7285 0.1669,0.1769 0.3937,0.2662 0.6809,0.2662 0.3319,0 0.5828,-0.083 0.7534,-0.2503 0.1709,-0.1672 0.2563,-0.4099 0.2563,-0.7299 z"
         style="fill:#004d99;fill-rule:evenodd"
         id="path33" />
      <path
         d="m 58.1867,37.2976 c -0.2268,0.1403 -0.4592,0.2441 -0.6962,0.3101 -0.235,0.0669 -0.4873,0.1001 -0.7563,0.1001 -0.5978,0 -1.0868,-0.1525 -1.4649,-0.4567 -0.3796,-0.3038 -0.5686,-0.6967 -0.5686,-1.1775 0,-0.5224 0.2225,-0.9459 0.6681,-1.2693 0.4456,-0.3246 1.0295,-0.487 1.7507,-0.487 0.7956,0 1.4094,0.2148 1.8405,0.6457 0.4329,0.4295 0.6486,1.0423 0.6486,1.8354 0,0.8533 -0.2381,1.516 -0.7158,1.9883 -0.4776,0.4722 -1.1457,0.7078 -2.0072,0.7078 -0.5587,0 -1.0168,-0.0953 -1.3768,-0.2843 -0.3597,-0.1894 -0.5394,-0.4198 -0.5394,-0.692 0,-0.1698 0.0589,-0.3038 0.1766,-0.4042 0.1179,-0.1001 0.2747,-0.1499 0.4722,-0.1499 0.3079,0 0.5267,0.1868 0.6512,0.5612 0.017,0.0476 0.0292,0.0831 0.0377,0.1038 0.0323,0.1026 0.0856,0.172 0.1567,0.21 0.0729,0.0366 0.195,0.055 0.3645,0.055 0.4216,0 0.7535,-0.1417 0.9944,-0.4249 0.2424,-0.2829 0.364,-0.6735 0.364,-1.1716 z m -0.074,-1.273 c 0,-0.322 -0.0827,-0.5712 -0.248,-0.7469 -0.1653,-0.1769 -0.3991,-0.2648 -0.7004,-0.2648 -0.3153,0 -0.5588,0.0867 -0.7325,0.2614 -0.1735,0.1732 -0.2602,0.4198 -0.2602,0.7358 0,0.3076 0.0839,0.5505 0.2503,0.7285 0.1669,0.1769 0.3937,0.2662 0.6808,0.2662 0.332,0 0.5828,-0.083 0.7535,-0.2503 0.1709,-0.1672 0.2565,-0.4099 0.2565,-0.7299 z"
         style="fill:#004d99;fill-rule:evenodd"
         id="path35" />
      <path
         d="m 45.8308,39.4943 c 0.4102,-1.6765 0.9905,-1.8544 2.4499,-2.4355 0.7195,-0.2867 0.9409,-0.8358 0.9409,-1.2734 0,-0.2646 -0.1626,-0.4689 -0.3198,-0.614 -0.1572,-0.1449 -0.3781,-0.218 -0.6628,-0.218 -0.2238,0 -0.4178,0.0467 -0.5807,0.1387 -0.1629,0.0919 -0.2437,0.1953 -0.2437,0.3076 0,0.0177 0.034,0.0844 0.105,0.2017 0.0706,0.1172 0.1061,0.2357 0.1061,0.3568 0,0.1663 -0.0651,0.3013 -0.197,0.4022 -0.1316,0.1008 -0.3059,0.1511 -0.5254,0.1511 -0.2125,0 -0.381,-0.0642 -0.5042,-0.1915 -0.1232,-0.1286 -0.1841,-0.3026 -0.1841,-0.5207 0,-1.0732 1.3994,-1.5573 2.2457,-1.5573 0.6942,0 1.3376,0.1738 1.7527,0.4578 0.8098,0.5543 0.8348,1.9733 -0.0633,2.4797 -0.7314,0.4123 -2.8096,0.4051 -2.8393,1.1157 -0.007,0.1691 0.0519,0.378 0.4662,0.3617 0.3662,-0.0145 1.9515,-0.0235 2.2205,-0.2305 0.1679,-0.1292 0.2833,-0.3487 0.4136,-0.6261 l 0.5127,10e-4 0.1123,1.693 z"
         style="fill:#004d99;fill-rule:evenodd"
         id="path37" />
   </g>
   <g
      id="university-chongqing-eng">
      <path
         d="m 72.4312,32.0963 c 0.0386,0.0807 0.0812,0.1534 0.1258,0.216 0.0461,0.0634 0.0982,0.1208 0.1571,0.1704 0.0915,0.0814 0.195,0.1469 0.3114,0.1943 0.1153,0.0493 0.2407,0.0923 0.3739,0.13 0.277,0.0758 0.5759,0.1523 0.8969,0.2306 0.3211,0.0782 0.6725,0.1622 1.0567,0.2511 0.2445,0.0601 0.4264,0.0866 0.5437,0.0788 0.1177,-0.007 0.3086,-0.0557 0.5717,-0.1455 l 0.712,-0.2429 c 0.0845,-0.0289 0.1527,-0.0696 0.2059,-0.1226 0.0528,-0.0542 0.0841,-0.132 0.0932,-0.2344 0.003,-0.0453 -0.004,-0.1368 -0.0217,-0.2743 -0.0166,-0.1378 -0.0333,-0.2368 -0.0495,-0.2996 l 0.2752,-0.094 0.9564,2.7726 -0.2751,0.094 c -0.0272,-0.0632 -0.0696,-0.1547 -0.125,-0.2727 -0.0568,-0.1174 -0.1031,-0.1969 -0.1393,-0.2395 -0.0674,-0.0737 -0.1371,-0.1156 -0.2111,-0.1267 -0.0735,-0.01 -0.1548,7e-4 -0.2441,0.0312 l -0.8847,0.3018 c -0.0772,0.0264 -0.1456,0.0511 -0.204,0.0736 -0.0583,0.0226 -0.1048,0.0479 -0.1401,0.0747 -0.0389,0.032 -0.0868,0.0805 -0.142,0.1437 -0.0563,0.0634 -0.1291,0.1459 -0.2169,0.2471 -0.256,0.2899 -0.4977,0.5668 -0.7254,0.8337 -0.2263,0.2664 -0.4389,0.5187 -0.6361,0.7564 -0.1026,0.1249 -0.1786,0.2407 -0.2306,0.3483 -0.0502,0.1084 -0.086,0.2118 -0.1062,0.3139 -0.0141,0.076 -0.0142,0.1618 -0.002,0.2585 0.013,0.0962 0.029,0.1819 0.0496,0.2568 l -0.2753,0.0939 -0.9864,-2.8591 0.2753,-0.0939 c 0.0978,0.2605 0.1768,0.4307 0.2373,0.512 0.0621,0.0822 0.1189,0.1138 0.1707,0.096 0.0254,-0.009 0.071,-0.0443 0.1379,-0.1047 0.0656,-0.06 0.1652,-0.1623 0.2983,-0.3043 0.1255,-0.1328 0.2954,-0.3209 0.5116,-0.5663 0.216,-0.2454 0.4672,-0.5378 0.7531,-0.8782 -0.8631,-0.2031 -1.4648,-0.3399 -1.8047,-0.4105 -0.3388,-0.0708 -0.54,-0.0948 -0.6039,-0.0729 -0.081,0.0276 -0.1243,0.0974 -0.1341,0.2095 -0.008,0.1128 0.0198,0.2802 0.0835,0.504 l -0.2753,0.0939 -0.6385,-1.8508 z m -18.8428,41.5272 c -0.0698,0.0213 -0.1694,0.0576 -0.2982,0.1097 -0.1304,0.0513 -0.2342,0.118 -0.3122,0.1978 -0.082,0.0793 -0.1268,0.2017 -0.1333,0.3672 -0.008,0.1645 0.02,0.4066 0.0818,0.7211 l 0.3778,1.9241 c 0.1111,0.566 0.007,1.0587 -0.3117,1.4789 -0.3191,0.42 -0.7978,0.6931 -1.4336,0.8164 -0.7422,0.1439 -1.3501,0.0892 -1.8211,-0.1645 -0.4722,-0.2534 -0.7665,-0.6785 -0.8833,-1.2738 l -0.5193,-2.6451 c -0.0165,-0.0849 -0.0473,-0.1551 -0.0918,-0.2098 -0.0455,-0.0533 -0.1189,-0.0959 -0.2211,-0.1264 -0.0702,-0.02 -0.1528,-0.0298 -0.2493,-0.0317 -0.0965,-7e-4 -0.1742,2e-4 -0.2345,0.004 l -0.0558,-0.284 2.72,-0.5287 0.0557,0.2842 c -0.078,0.0202 -0.1555,0.0446 -0.2338,0.0738 -0.0785,0.0292 -0.1562,0.0651 -0.235,0.1077 -0.0869,0.0479 -0.1398,0.1086 -0.1592,0.1822 -0.0179,0.0746 -0.019,0.1544 -0.002,0.2396 l 0.5125,2.6103 c 0.1006,0.5125 0.288,0.8647 0.5616,1.0531 0.2749,0.1885 0.6288,0.241 1.063,0.1568 0.4267,-0.0827 0.7363,-0.2763 0.9285,-0.5812 0.1922,-0.3049 0.2392,-0.7084 0.141,-1.2092 l -0.3443,-1.7534 c -0.0611,-0.3114 -0.1285,-0.5404 -0.201,-0.6862 -0.0726,-0.1459 -0.1611,-0.2442 -0.2622,-0.2956 -0.0741,-0.0399 -0.1938,-0.0671 -0.3604,-0.0813 -0.1664,-0.0128 -0.2817,-0.0176 -0.3475,-0.0152 l -0.0572,-0.2914 2.2691,-0.441 z m 6.6918,-2.9452 c -0.0605,0.0363 -0.1449,0.0905 -0.2532,0.1628 -0.1089,0.0713 -0.1951,0.1641 -0.2574,0.2781 -0.0549,0.0995 -0.0658,0.2302 -0.0325,0.3954 0.0338,0.1633 0.1172,0.3881 0.2506,0.6745 l 1.5949,3.4261 -0.6126,0.2824 -4.7022,-2.328 1.0461,2.2472 c 0.1295,0.2782 0.2468,0.4818 0.3514,0.6098 0.1057,0.1275 0.2157,0.2068 0.3302,0.2351 0.0845,0.0212 0.2022,0.0201 0.3534,-0.002 0.151,-0.0233 0.2691,-0.0471 0.3544,-0.0695 l 0.1222,0.2624 -2.0773,0.9576 -0.1222,-0.2626 c 0.0848,-0.0474 0.1781,-0.11 0.2803,-0.1893 0.1018,-0.0776 0.1791,-0.1622 0.2303,-0.2516 0.0574,-0.1062 0.0721,-0.2317 0.0441,-0.3796 -0.0287,-0.1463 -0.1155,-0.3747 -0.2606,-0.6867 l -1.0568,-2.2703 c -0.0525,-0.1128 -0.1199,-0.212 -0.2011,-0.296 -0.0812,-0.084 -0.1759,-0.1454 -0.2833,-0.1826 -0.1146,-0.041 -0.2317,-0.0597 -0.355,-0.0559 -0.1228,0.002 -0.2547,0.0209 -0.3957,0.0566 l -0.1222,-0.2626 1.8157,-0.8369 4.1189,2.039 -0.8462,-1.8179 c -0.1344,-0.289 -0.2544,-0.4952 -0.358,-0.6181 -0.104,-0.124 -0.2141,-0.2004 -0.3297,-0.2283 -0.0907,-0.0224 -0.2083,-0.0214 -0.3557,5e-4 -0.1457,0.0224 -0.2618,0.045 -0.348,0.068 l -0.1191,-0.2556 2.0773,-0.9575 z m 6.0468,1.9238 -2.4172,1.6514 -0.1646,-0.2384 c 0.0528,-0.0424 0.1295,-0.104 0.231,-0.1856 0.1021,-0.0807 0.1672,-0.1435 0.1966,-0.1883 0.0548,-0.082 0.0782,-0.1581 0.0719,-0.2276 -0.006,-0.0679 -0.0378,-0.1421 -0.0911,-0.2194 l -2.129,-3.0834 c -0.0482,-0.0699 -0.1046,-0.1224 -0.1671,-0.1566 -0.063,-0.0354 -0.1452,-0.0424 -0.2455,-0.0217 -0.0628,0.0122 -0.1498,0.0408 -0.261,0.0861 -0.1109,0.0434 -0.2041,0.0856 -0.2794,0.1246 l -0.1646,-0.2385 2.4172,-1.6514 0.1647,0.2385 c -0.0567,0.048 -0.1278,0.1089 -0.2124,0.1836 -0.0834,0.0738 -0.1505,0.1428 -0.1999,0.2059 -0.0613,0.0818 -0.0866,0.1592 -0.074,0.2336 0.0127,0.0744 0.0432,0.1477 0.0923,0.2187 l 2.1274,3.0812 c 0.0505,0.0731 0.1076,0.1266 0.1711,0.1601 0.0645,0.033 0.1466,0.04 0.2469,0.0192 0.055,-0.01 0.1388,-0.041 0.2493,-0.0919 0.1121,-0.0504 0.2025,-0.0967 0.2728,-0.1386 z m 2.2499,-9.0034 c -0.0529,0.0625 -0.0993,0.1277 -0.1359,0.1955 -0.0374,0.0688 -0.0678,0.1467 -0.092,0.2364 -0.0325,0.1191 -0.0449,0.2239 -0.0365,0.3155 0.008,0.0915 0.0364,0.2013 0.0831,0.3298 0.0655,0.1747 0.1647,0.4284 0.2967,0.7604 0.1328,0.3312 0.2835,0.7092 0.4518,1.1321 0.1524,0.3798 0.3207,0.7937 0.505,1.2437 0.1853,0.449 0.3626,0.8792 0.5319,1.2904 l -0.5354,0.5247 c -0.8482,-0.3621 -1.7107,-0.73 -2.5875,-1.1033 -0.8769,-0.3732 -1.4876,-0.6298 -1.8339,-0.7713 -0.1288,-0.0485 -0.2351,-0.0761 -0.3179,-0.084 -0.0821,-0.007 -0.1896,0.006 -0.3197,0.039 -0.094,0.0263 -0.1701,0.0545 -0.2289,0.0873 -0.0598,0.0318 -0.1324,0.0797 -0.2194,0.1438 l -0.2042,-0.2061 2.0448,-2.0043 0.1989,0.2006 c -0.1675,0.2106 -0.2724,0.3615 -0.3155,0.4536 -0.0422,0.0912 -0.0444,0.1576 -0.006,0.1964 0.0197,0.0198 0.044,0.0371 0.071,0.0535 0.0279,0.0155 0.0674,0.0355 0.1159,0.061 0.2112,0.0993 0.5656,0.2526 1.0639,0.4589 0.4983,0.2064 1.2529,0.5267 2.2611,0.9619 -0.257,-0.6155 -0.4762,-1.133 -0.6579,-1.5534 -0.1819,-0.4203 -0.3424,-0.7921 -0.4835,-1.1134 -0.0675,-0.1567 -0.1349,-0.2989 -0.2035,-0.4259 -0.0676,-0.1262 -0.1266,-0.2146 -0.1758,-0.2642 -0.0553,-0.0559 -0.1438,-0.0638 -0.2632,-0.0216 -0.1204,0.043 -0.3,0.1639 -0.5396,0.3649 l -0.2095,-0.2115 1.5322,-1.5018 z m 3.6959,-3.976 -0.1522,0.2467 c -0.2099,-0.043 -0.4497,-0.0449 -0.7186,-0.002 -0.2694,0.0414 -0.4648,0.1277 -0.5881,0.255 -0.0535,0.0553 -0.118,0.1379 -0.1906,0.2485 -0.0727,0.1106 -0.1319,0.2041 -0.1772,0.2776 l -0.4025,0.6525 1.7487,1.066 0.2857,-0.4632 c 0.072,-0.117 0.1233,-0.2315 0.1548,-0.3433 0.0305,-0.1125 0.0305,-0.2315 4e-4,-0.3572 -0.019,-0.0786 -0.0754,-0.1813 -0.1675,-0.306 -0.094,-0.1242 -0.1816,-0.2224 -0.2636,-0.2932 l 0.1521,-0.2467 1.8858,1.1495 -0.1522,0.2467 c -0.0972,-0.0415 -0.2292,-0.0772 -0.3954,-0.1086 -0.1669,-0.0303 -0.2911,-0.0374 -0.3698,-0.0214 -0.1199,0.0221 -0.2236,0.0736 -0.3105,0.1517 -0.0881,0.0773 -0.1695,0.1778 -0.2471,0.3035 l -0.2856,0.463 1.3051,0.7955 c 0.1369,0.0836 0.2506,0.1394 0.3427,0.1673 0.0924,0.0295 0.1767,0.0288 0.2532,-5e-4 0.0728,-0.0285 0.1447,-0.0844 0.2134,-0.1692 0.0699,-0.084 0.1537,-0.2055 0.2519,-0.3645 0.0453,-0.0737 0.099,-0.1631 0.1608,-0.2683 0.0619,-0.1051 0.1115,-0.2 0.1486,-0.2846 0.045,-0.0947 0.08,-0.188 0.1064,-0.2791 0.0266,-0.0894 0.0305,-0.166 0.0137,-0.2284 -0.0418,-0.1654 -0.1309,-0.3776 -0.2671,-0.6346 -0.1355,-0.2584 -0.2439,-0.4391 -0.3258,-0.5441 l 0.1441,-0.2337 1.3566,0.9446 -2.6057,4.2255 -0.2479,-0.1512 c 0.0323,-0.0621 0.073,-0.1475 0.1244,-0.2576 0.0498,-0.1097 0.0784,-0.1904 0.0878,-0.2442 0.0156,-0.1007 0.007,-0.1806 -0.0282,-0.2406 -0.0356,-0.0589 -0.0932,-0.1134 -0.1737,-0.1623 l -3.1906,-1.9449 c -0.0772,-0.0471 -0.1476,-0.0737 -0.2118,-0.0814 -0.0646,-0.007 -0.1439,0.0224 -0.2389,0.0866 -0.0601,0.0392 -0.131,0.1031 -0.2141,0.1895 -0.0821,0.0871 -0.1429,0.1541 -0.1807,0.201 l -0.2481,-0.1511 2.4623,-3.9929 z m 2.0933,-4.7469 c -0.3304,-0.1282 -0.608,-0.1298 -0.8325,-0.004 -0.2256,0.1249 -0.4054,0.3591 -0.5392,0.6996 l -0.1082,0.2753 2.0749,0.8055 0.1041,-0.2646 c 0.1342,-0.3417 0.1487,-0.64 0.0431,-0.8977 -0.1056,-0.2575 -0.3525,-0.4623 -0.7422,-0.6136 z m 4.5996,-0.9284 -0.7405,1.8843 c -0.6284,0.132 -1.1337,0.2466 -1.5145,0.348 -0.3816,0.0997 -0.8294,0.2353 -1.3451,0.4042 l -0.0765,0.1952 1.4984,0.5817 c 0.0832,0.0323 0.1594,0.0441 0.2302,0.0349 0.0703,-0.008 0.1427,-0.0495 0.2162,-0.1218 0.0362,-0.0363 0.0827,-0.0987 0.1384,-0.1847 0.057,-0.0857 0.1015,-0.161 0.1351,-0.2255 l 0.271,0.1051 -1.0312,2.6244 -0.271,-0.1052 c 0.0194,-0.0702 0.0446,-0.1625 0.0749,-0.2775 0.0302,-0.1151 0.0453,-0.1991 0.0449,-0.2537 -0.002,-0.1017 -0.0257,-0.179 -0.0706,-0.2318 -0.0454,-0.0516 -0.1119,-0.0951 -0.1997,-0.1293 l -3.4867,-1.3535 c -0.0844,-0.0327 -0.1584,-0.0465 -0.224,-0.0434 -0.0661,0.004 -0.139,0.0469 -0.2186,0.1276 -0.0602,0.0625 -0.1195,0.1404 -0.1803,0.2325 -0.0602,0.0938 -0.1069,0.1671 -0.139,0.2213 l -0.271,-0.1051 1.0846,-2.7604 c 0.2424,-0.617 0.524,-1.0473 0.8434,-1.2925 0.3195,-0.2452 0.6758,-0.2908 1.0691,-0.1381 0.3459,0.1342 0.5861,0.3421 0.7189,0.621 0.1328,0.2791 0.1782,0.6443 0.1383,1.0947 0.2661,-0.078 0.5747,-0.1694 0.9255,-0.2744 0.3507,-0.105 0.7119,-0.2155 1.081,-0.3323 0.1186,-0.0371 0.2673,-0.0911 0.4468,-0.1645 0.1789,-0.0721 0.3025,-0.1497 0.3698,-0.2338 0.0376,-0.0469 0.0783,-0.1086 0.1211,-0.186 0.044,-0.0769 0.0743,-0.1333 0.0902,-0.1666 z m 0.7293,-3.1347 c -0.0443,0.3207 -0.1258,0.6132 -0.2434,0.8776 -0.119,0.2657 -0.2449,0.4868 -0.3801,0.6643 l 0.2241,0.2892 -0.0437,0.3169 -1.9023,-0.2125 0.0437,-0.3168 c 0.1894,-0.0473 0.3916,-0.1121 0.6064,-0.1956 0.2137,-0.0836 0.4095,-0.1863 0.5877,-0.3107 0.1862,-0.1272 0.3431,-0.2761 0.4712,-0.4483 0.1292,-0.1707 0.2109,-0.3799 0.2451,-0.6288 0.046,-0.3332 -7e-4,-0.6009 -0.1392,-0.8016 -0.1399,-0.1996 -0.3337,-0.3168 -0.5827,-0.3507 -0.2035,-0.0277 -0.3857,0.0244 -0.5456,0.1563 -0.1599,0.132 -0.3122,0.3495 -0.4584,0.6525 -0.0955,0.1984 -0.1836,0.3797 -0.2643,0.5442 -0.0807,0.1659 -0.1613,0.32 -0.2418,0.4654 -0.19,0.3315 -0.427,0.5656 -0.7134,0.6997 -0.2853,0.1354 -0.5903,0.181 -0.9139,0.137 -0.2048,-0.0278 -0.3959,-0.0987 -0.5733,-0.2136 -0.1774,-0.1139 -0.3289,-0.2664 -0.4558,-0.4566 -0.1194,-0.1814 -0.2057,-0.4045 -0.2594,-0.6692 -0.0548,-0.2649 -0.0612,-0.5463 -0.0201,-0.8443 0.0401,-0.2904 0.1179,-0.5564 0.235,-0.798 0.1157,-0.2417 0.2242,-0.4306 0.3263,-0.5641 l -0.1914,-0.2552 0.0437,-0.3169 1.7941,0.2132 -0.0437,0.3169 c -0.2024,0.048 -0.4114,0.1067 -0.626,0.1788 -0.2147,0.0719 -0.3974,0.1546 -0.5454,0.2472 -0.1592,0.1 -0.2936,0.2239 -0.3999,0.3696 -0.1063,0.1444 -0.1747,0.3234 -0.2039,0.5346 -0.0366,0.2654 0.01,0.4918 0.1369,0.6796 0.1272,0.1888 0.3025,0.2985 0.5251,0.3287 0.2098,0.0286 0.3918,-0.021 0.5447,-0.1488 0.1543,-0.1289 0.3032,-0.3405 0.4468,-0.636 0.0872,-0.1739 0.1747,-0.3502 0.2615,-0.5318 0.088,-0.1803 0.1706,-0.3407 0.2477,-0.48 0.1884,-0.3382 0.4164,-0.5825 0.6861,-0.7354 0.2683,-0.1518 0.5832,-0.2038 0.9446,-0.1546 0.2276,0.0309 0.4403,0.1135 0.6381,0.2481 0.1978,0.1345 0.3552,0.3006 0.472,0.4997 0.1284,0.2172 0.2171,0.4611 0.265,0.7302 0.049,0.2705 0.0492,0.5766 0.002,0.9198 z m 0.3533,-6.5262 -0.0807,2.915 -0.2908,-0.008 c -0.003,-0.0674 -0.008,-0.1653 -0.0148,-0.2949 -0.005,-0.1296 -0.0183,-0.2188 -0.0373,-0.2689 -0.0344,-0.0923 -0.0824,-0.1558 -0.1428,-0.1918 -0.059,-0.0346 -0.1376,-0.0532 -0.2319,-0.0559 l -3.7601,-0.103 c -0.0854,-0.002 -0.1612,0.0122 -0.2258,0.0422 -0.066,0.0299 -0.1199,0.0918 -0.1621,0.1847 -0.0271,0.0575 -0.0551,0.1444 -0.0837,0.2604 -0.03,0.1146 -0.0507,0.2144 -0.0632,0.2978 l -0.2908,-0.008 0.0807,-2.9148 0.2909,0.008 c 0.006,0.0737 0.0132,0.1666 0.0241,0.2788 0.0109,0.1106 0.0275,0.205 0.0497,0.2819 0.0305,0.0972 0.0784,0.1633 0.1464,0.1968 0.068,0.0336 0.1453,0.0523 0.232,0.0547 l 3.7575,0.1029 c 0.0893,0.002 0.1662,-0.012 0.2309,-0.0432 0.0648,-0.0325 0.1188,-0.0945 0.161,-0.1873 0.0243,-0.0501 0.0484,-0.1358 0.0721,-0.2545 0.025,-0.1199 0.0405,-0.2197 0.0479,-0.3008 z m -4.3629,-6.0025 0.0361,0.2871 c -0.2146,0.1034 -0.4386,0.2553 -0.6732,0.4558 -0.2348,0.1991 -0.3532,0.3724 -0.3555,0.5173 -4e-4,0.0793 0.004,0.1772 0.0112,0.294 0.007,0.1155 0.0154,0.2155 0.0261,0.2998 l 0.0216,0.1725 4.1261,-0.5122 c 0.0887,-0.0111 0.1651,-0.0372 0.2295,-0.0771 0.0644,-0.04 0.1097,-0.1096 0.1374,-0.2076 0.0157,-0.0583 0.0274,-0.1492 0.0354,-0.2705 0.009,-0.1226 0.0129,-0.2253 0.0125,-0.3097 l 0.2887,-0.0358 0.3651,2.9087 -0.2887,0.0358 c -0.0165,-0.0695 -0.0391,-0.169 -0.0692,-0.2958 -0.0301,-0.1267 -0.0575,-0.2115 -0.0823,-0.2557 -0.0525,-0.0907 -0.1138,-0.1483 -0.1835,-0.1716 -0.0711,-0.0231 -0.1516,-0.0298 -0.244,-0.0182 l -4.163,0.5167 0.0216,0.1725 c 0.0106,0.0844 0.027,0.1834 0.049,0.297 0.022,0.1149 0.0419,0.2109 0.0618,0.2877 0.038,0.1398 0.1957,0.2788 0.4724,0.4146 0.277,0.1369 0.5316,0.2294 0.7652,0.277 l 0.036,0.2871 -1.5042,0.1868 -0.6363,-5.0694 z"
         style="fill:#004d99;fill-rule:evenodd"
         id="path39" />
      <path
         d="m 10.8789,34.0336 c 0.1239,-0.3656 0.2991,-0.6885 0.5273,-0.9682 0.2276,-0.2786 0.4946,-0.4983 0.8022,-0.6592 0.3015,-0.1587 0.6379,-0.2495 1.0108,-0.2733 0.3728,-0.0236 0.756,0.0297 1.1478,0.161 0.3905,0.1308 0.7292,0.3194 1.0158,0.5666 0.2856,0.2457 0.5102,0.5325 0.6706,0.858 0.1579,0.3208 0.2456,0.6702 0.2621,1.0507 0.0178,0.3808 -0.0387,0.7623 -0.1687,1.1459 -0.0937,0.2765 -0.2131,0.5177 -0.3594,0.7232 -0.1451,0.2057 -0.2876,0.3722 -0.4257,0.5014 l 0.1206,0.284 -0.1027,0.303 -1.8452,-0.586 0.105,-0.3103 c 0.6217,0.0129 1.1058,-0.0606 1.4529,-0.2189 0.3459,-0.1585 0.5791,-0.4138 0.6993,-0.7686 0.1495,-0.4413 0.0672,-0.8424 -0.2468,-1.2034 -0.3139,-0.3609 -0.825,-0.6606 -1.5335,-0.8981 -0.4003,-0.1341 -0.7559,-0.2091 -1.0653,-0.2258 -0.3094,-0.0165 -0.5717,0.0107 -0.7875,0.079 -0.2261,0.0755 -0.4125,0.1925 -0.5598,0.3494 -0.1462,0.1572 -0.2578,0.3475 -0.3343,0.5735 -0.1113,0.3284 -0.1196,0.6509 -0.0262,0.9674 0.093,0.3178 0.2856,0.6434 0.5795,0.9762 l -0.2877,0.241 c -0.1738,-0.1707 -0.3208,-0.3484 -0.4405,-0.5319 -0.1209,-0.1837 -0.2118,-0.3803 -0.2728,-0.5895 -0.0667,-0.2285 -0.099,-0.467 -0.0966,-0.7166 0.002,-0.2484 0.0554,-0.5251 0.1588,-0.8305 z m -0.0894,16.3917 c 0.2405,0.0828 0.5049,0.1305 0.7972,0.1441 0.2911,0.0138 0.6157,-10e-4 0.9754,-0.0456 0.305,-0.0379 0.5999,-0.0962 0.8833,-0.175 0.2833,-0.0786 0.531,-0.1847 0.7433,-0.316 0.2134,-0.1339 0.3769,-0.2961 0.4904,-0.4881 0.1149,-0.1919 0.156,-0.417 0.1233,-0.6776 -0.056,-0.4457 -0.3112,-0.758 -0.7657,-0.9368 -0.4543,-0.1778 -1.069,-0.2191 -1.8451,-0.1227 -0.3305,0.041 -0.6375,0.1047 -0.9248,0.1916 -0.2863,0.0866 -0.5308,0.1976 -0.7362,0.333 -0.2064,0.1382 -0.361,0.2993 -0.4625,0.4845 -0.1016,0.1853 -0.1361,0.4019 -0.1048,0.6512 0.0306,0.2429 0.1189,0.4443 0.2648,0.6039 0.146,0.1583 0.3331,0.277 0.5614,0.3535 z m 3.8891,0.4789 c -0.2057,0.2864 -0.4661,0.5272 -0.7838,0.7201 -0.3179,0.1929 -0.6908,0.316 -1.1212,0.3694 -0.3836,0.0476 -0.7564,0.0287 -1.118,-0.0557 -0.363,-0.0853 -0.6835,-0.2322 -0.9644,-0.4416 -0.2914,-0.2209 -0.5301,-0.4942 -0.7186,-0.8175 -0.1871,-0.3233 -0.3103,-0.721 -0.3697,-1.1932 -0.0478,-0.3815 -0.0297,-0.7494 0.0531,-1.1037 0.0842,-0.3545 0.2302,-0.6757 0.4372,-0.9635 0.2034,-0.2849 0.4628,-0.523 0.7807,-0.7146 0.318,-0.1917 0.682,-0.3136 1.0961,-0.365 0.4291,-0.0532 0.8296,-0.0289 1.1974,0.0738 0.3676,0.1027 0.6931,0.267 0.9745,0.4916 0.2774,0.2226 0.5039,0.5002 0.6791,0.8313 0.1767,0.331 0.289,0.6931 0.3384,1.0872 0.049,0.3902 0.0304,0.7648 -0.0545,1.1232 -0.0859,0.3597 -0.2286,0.678 -0.4263,0.9582 z m 2.854,7.2654 c -0.0328,-0.0622 -0.082,-0.1492 -0.148,-0.2611 -0.0649,-0.1125 -0.1528,-0.2037 -0.2635,-0.2722 -0.0963,-0.0606 -0.227,-0.0793 -0.3948,-0.0563 -0.1659,0.0238 -0.3963,0.0931 -0.6922,0.2082 l -3.5358,1.3768 -0.2461,-0.6251 2.623,-4.5276 -2.3192,0.903 c -0.2875,0.112 -0.4986,0.2161 -0.6334,0.3121 -0.1344,0.0972 -0.2207,0.2017 -0.2561,0.3136 -0.0265,0.0826 -0.0326,0.1994 -0.0195,0.3511 0.0143,0.1511 0.031,0.2699 0.0483,0.3559 l -0.2708,0.1055 -0.8345,-2.1199 0.2709,-0.1055 c 0.0425,0.087 0.0996,0.1834 0.173,0.2897 0.0716,0.1057 0.1519,0.1875 0.2385,0.2437 0.103,0.0636 0.2281,0.0857 0.3782,0.0667 0.1485,-0.0196 0.3831,-0.0919 0.7051,-0.2174 l 2.343,-0.9122 c 0.1164,-0.0453 0.2199,-0.106 0.3093,-0.1817 0.0895,-0.0757 0.1567,-0.1659 0.2006,-0.2703 0.048,-0.1113 0.0739,-0.2263 0.0777,-0.3491 0.005,-0.122 -0.006,-0.254 -0.0327,-0.3961 l 0.271,-0.1055 0.7293,1.8528 -2.2973,3.9661 1.8761,-0.7306 c 0.2982,-0.1161 0.5125,-0.2227 0.642,-0.3181 0.1309,-0.0958 0.2143,-0.2005 0.2493,-0.3136 0.0281,-0.0886 0.0342,-0.2055 0.0213,-0.3532 -0.0137,-0.1459 -0.0293,-0.2624 -0.0472,-0.3496 l 0.2638,-0.1026 0.8345,2.1198 z m 1.2346,7.274 c -0.0485,-0.061 -0.0922,-0.113 -0.1332,-0.1577 -0.0398,-0.0455 -0.0976,-0.0976 -0.1704,-0.1567 -0.0836,-0.0688 -0.1645,-0.0957 -0.2447,-0.0839 -0.0806,0.0137 -0.1562,0.042 -0.2251,0.0858 l -0.5203,0.3309 c -0.1053,0.0669 -0.1884,0.1213 -0.2515,0.1645 -0.0632,0.0431 -0.1397,0.0962 -0.2314,0.1606 -0.2609,-0.1278 -0.5777,-0.3615 -0.9514,-0.6978 -0.3733,-0.338 -0.6697,-0.6766 -0.8896,-1.0187 -0.207,-0.3219 -0.3512,-0.6548 -0.4332,-0.9989 -0.0825,-0.3451 -0.0941,-0.6857 -0.0329,-1.0242 0.0587,-0.3372 0.1939,-0.6596 0.4047,-0.9653 0.2118,-0.3064 0.5048,-0.5785 0.8789,-0.8164 0.3484,-0.2214 0.708,-0.3687 1.0783,-0.4431 0.3709,-0.0731 0.7321,-0.0694 1.0855,0.0116 0.3497,0.0775 0.6801,0.2334 0.9928,0.4653 0.3116,0.2326 0.5875,0.5346 0.8267,0.9066 0.1621,0.2524 0.2815,0.5063 0.3562,0.7615 0.0758,0.2545 0.1221,0.4752 0.1412,0.6603 l 0.2983,0.0844 0.1732,0.2695 -1.6154,1.0632 -0.1774,-0.2758 c 0.3896,-0.4706 0.6317,-0.8926 0.728,-1.2656 0.0961,-0.3714 0.0354,-0.7273 -0.1818,-1.0652 -0.2571,-0.3998 -0.6321,-0.5966 -1.1249,-0.5906 -0.4938,0.007 -1.0498,0.2068 -1.6691,0.6004 -0.6578,0.4184 -1.103,0.852 -1.3374,1.3023 -0.2345,0.4503 -0.2261,0.8711 0.0262,1.2636 0.1182,0.1838 0.2514,0.3295 0.3976,0.4369 0.148,0.1078 0.284,0.1779 0.4079,0.2106 l 0.9063,-0.5763 c 0.0752,-0.0479 0.1297,-0.102 0.1631,-0.1609 0.0336,-0.0606 0.0444,-0.1427 0.0298,-0.248 -0.0115,-0.0815 -0.0381,-0.1745 -0.0792,-0.2809 -0.0411,-0.1064 -0.0783,-0.1927 -0.1103,-0.2613 l 0.2451,-0.1558 1.4845,2.3093 z m 2.9078,4.5772 c 0.239,-0.0871 0.475,-0.2172 0.7093,-0.3894 0.2352,-0.1732 0.4784,-0.3896 0.7287,-0.6503 0.2133,-0.222 0.4047,-0.4525 0.5743,-0.6916 0.1704,-0.2398 0.2949,-0.4778 0.377,-0.7141 0.0794,-0.2369 0.103,-0.4653 0.0699,-0.6863 -0.0329,-0.2209 -0.144,-0.4212 -0.3351,-0.6027 -0.3265,-0.3102 -0.7227,-0.392 -1.1895,-0.244 -0.465,0.1479 -0.9686,0.5031 -1.5097,1.0665 -0.23,0.2395 -0.4283,0.4828 -0.596,0.7307 -0.1666,0.2471 -0.2865,0.4876 -0.3597,0.7217 -0.0721,0.2367 -0.0895,0.4589 -0.0506,0.6662 0.0392,0.2074 0.149,0.3978 0.3317,0.5714 0.1781,0.1691 0.3744,0.2697 0.5891,0.3016 0.2137,0.0311 0.4351,0.005 0.6606,-0.0797 z m 3.3227,-2.0778 c 0.0226,0.3512 -0.0271,0.7023 -0.1508,1.0517 -0.1229,0.3482 -0.3345,0.6789 -0.6342,0.9909 -0.4257,0.4431 -0.9109,0.7261 -1.4559,0.8507 -0.544,0.1237 -1.0904,0.0661 -1.6393,-0.1746 -0.1998,0.2191 -0.3133,0.4658 -0.3385,0.7401 -0.0262,0.2753 0.0465,0.4935 0.2162,0.6548 0.1044,0.0991 0.2027,0.1802 0.2927,0.2429 0.0908,0.0616 0.1749,0.1154 0.2528,0.1593 l -0.2257,0.235 c -0.143,-0.0552 -0.3376,-0.1575 -0.5819,-0.3054 -0.2435,-0.1489 -0.4759,-0.3276 -0.6982,-0.5388 -0.3026,-0.2875 -0.4663,-0.6149 -0.4892,-0.9807 -0.022,-0.3666 0.1097,-0.7223 0.396,-1.0662 -0.2307,-0.2667 -0.407,-0.5553 -0.5306,-0.8639 -0.1227,-0.3096 -0.1868,-0.6286 -0.1898,-0.9579 -0.002,-0.3248 0.0599,-0.6484 0.186,-0.9708 0.1253,-0.3232 0.3215,-0.623 0.5885,-0.901 0.2996,-0.312 0.6255,-0.5447 0.9758,-0.6963 0.3511,-0.1524 0.7077,-0.2296 1.0684,-0.2324 0.3565,-0.002 0.7084,0.0709 1.0547,0.2174 0.3472,0.1455 0.6643,0.3556 0.953,0.6298 0.286,0.2718 0.5096,0.5737 0.6714,0.9048 0.162,0.3329 0.2538,0.6692 0.2786,1.0106 z m 1.5019,6.7594 -2.4686,-1.5735 0.157,-0.2436 c 0.0597,0.032 0.1465,0.0784 0.2615,0.1397 0.1145,0.0624 0.1979,0.0974 0.2509,0.107 0.0972,0.0183 0.1767,0.0102 0.2388,-0.0225 0.0604,-0.0324 0.117,-0.0899 0.1679,-0.1688 l 2.0296,-3.1496 c 0.0461,-0.0715 0.0728,-0.1434 0.0803,-0.214 0.008,-0.0717 -0.0172,-0.1496 -0.0754,-0.2335 -0.0355,-0.0528 -0.0959,-0.1214 -0.181,-0.2057 -0.0833,-0.0848 -0.1585,-0.1539 -0.2239,-0.2075 l 0.157,-0.2437 2.4686,1.5734 -0.157,0.2437 c -0.0665,-0.0333 -0.1504,-0.0748 -0.2525,-0.1233 -0.101,-0.0478 -0.1909,-0.0824 -0.2684,-0.1033 -0.0995,-0.0243 -0.1811,-0.0175 -0.2452,0.0231 -0.064,0.0406 -0.12,0.0968 -0.1668,0.1695 l -2.0282,3.1474 c -0.0483,0.0748 -0.0755,0.1478 -0.082,0.219 -0.006,0.0719 0.02,0.15 0.0782,0.2337 0.0305,0.0466 0.0919,0.1114 0.1819,0.1928 0.0903,0.0832 0.1683,0.148 0.2343,0.1961 z m 9.3839,-1.018 c -0.0672,-0.0217 -0.1636,-0.0496 -0.2895,-0.0837 -0.1254,-0.0353 -0.2523,-0.0393 -0.3797,-0.0115 -0.1115,0.0239 -0.218,0.1013 -0.3218,0.2345 -0.1018,0.1325 -0.2178,0.342 -0.3484,0.6302 l -1.5594,3.4432 -0.6155,-0.2757 -1.3085,-5.0606 -1.0229,2.2583 c -0.1268,0.28 -0.2046,0.5013 -0.2334,0.6637 -0.0276,0.163 -0.0158,0.2977 0.0375,0.4023 0.0391,0.0775 0.1169,0.1652 0.2329,0.2644 0.1166,0.0981 0.212,0.1716 0.2848,0.2209 l -0.1194,0.2637 -2.0872,-0.9349 0.1195,-0.2638 c 0.0917,0.0326 0.2002,0.0618 0.3274,0.0868 0.1256,0.0256 0.2404,0.0283 0.3419,0.008 0.1183,-0.0263 0.2233,-0.0976 0.3172,-0.2155 0.0924,-0.1173 0.2093,-0.3322 0.3513,-0.6457 l 1.0334,-2.2816 c 0.0513,-0.1133 0.0827,-0.2287 0.0933,-0.3451 0.0107,-0.1162 -0.005,-0.2275 -0.0466,-0.3326 -0.044,-0.1129 -0.1064,-0.2133 -0.1899,-0.3036 -0.082,-0.091 -0.1826,-0.1778 -0.302,-0.2605 l 0.1196,-0.2639 1.8241,0.8173 1.1465,4.4328 0.8275,-1.827 c 0.1315,-0.2903 0.2097,-0.5156 0.2353,-0.6739 0.026,-0.1595 0.012,-0.2924 -0.0425,-0.3976 -0.0422,-0.0828 -0.12,-0.1707 -0.2331,-0.2672 -0.1123,-0.0948 -0.2054,-0.1672 -0.2795,-0.2171 l 0.1164,-0.2568 2.087,0.9349 z m 6.0151,3.9189 c -0.078,-0.006 -0.1538,-0.0139 -0.2147,-0.0145 -0.0605,-0.002 -0.1383,0.005 -0.2314,0.0177 -0.1076,0.0141 -0.1825,0.0548 -0.2282,0.1213 -0.0449,0.0681 -0.0753,0.1425 -0.0898,0.2225 l -0.11,0.6043 c -0.0222,0.1223 -0.0386,0.22 -0.0498,0.2954 -0.0112,0.0754 -0.0239,0.1672 -0.039,0.278 -0.2715,0.1032 -0.6594,0.1753 -1.1613,0.2191 -0.5031,0.0423 -0.9544,0.0281 -1.3562,-0.0442 -0.3778,-0.068 -0.7214,-0.1891 -1.0308,-0.3634 -0.3105,-0.1745 -0.5694,-0.3978 -0.7774,-0.6725 -0.2085,-0.2721 -0.3544,-0.59 -0.4363,-0.9515 -0.0818,-0.3629 -0.0832,-0.7616 -0.004,-1.1962 0.0735,-0.4046 0.2095,-0.7669 0.4066,-1.0874 0.1983,-0.3202 0.4466,-0.5811 0.7467,-0.7837 0.2949,-0.2023 0.6345,-0.3372 1.0182,-0.4076 0.3833,-0.0689 0.7936,-0.0647 1.2305,0.0139 0.2963,0.0533 0.5647,0.1391 0.8037,0.2581 0.2391,0.1178 0.4332,0.234 0.5827,0.3461 l 0.2652,-0.1601 0.3164,0.057 -0.3148,1.901 -0.324,-0.0583 c -0.0819,-0.6041 -0.2284,-1.0677 -0.4379,-1.3916 -0.2084,-0.3225 -0.5121,-0.5203 -0.9089,-0.5917 -0.4694,-0.0845 -0.8696,0.055 -1.2003,0.4185 -0.3309,0.3647 -0.5616,0.9061 -0.6925,1.6253 -0.139,0.7641 -0.1221,1.3836 0.0505,1.8609 0.1725,0.4771 0.4884,0.7571 0.9493,0.84 0.2159,0.0389 0.414,0.041 0.5926,0.007 0.18,-0.0347 0.3242,-0.0862 0.4325,-0.1544 l 0.1916,-1.0526 c 0.0159,-0.0873 0.0129,-0.1639 -0.008,-0.2283 -0.0217,-0.0658 -0.0749,-0.1295 -0.1624,-0.1904 -0.068,-0.047 -0.1546,-0.0909 -0.2611,-0.1333 -0.1064,-0.0425 -0.1953,-0.0739 -0.2675,-0.0972 l 0.0518,-0.2847 2.6699,0.488 z m -32.5856,-33.0203 0.2178,-2.8468 0.29,0.0219 c 4e-4,0.0623 0.001,0.1541 0.002,0.2738 -3e-4,0.1196 0.009,0.203 0.0258,0.2488 0.0298,0.0939 0.0746,0.1609 0.1329,0.201 0.0585,0.0387 0.1348,0.0623 0.2289,0.0694 l 1.8269,0.1382 0.1725,-2.2547 -1.7849,-0.135 c -0.0853,-0.006 -0.1631,0.005 -0.232,0.0372 -0.0701,0.0303 -0.127,0.0883 -0.1718,0.1715 -0.0228,0.0466 -0.0505,0.1247 -0.082,0.2369 -0.0305,0.1135 -0.0515,0.2048 -0.0622,0.2764 l -0.29,-0.0219 0.2178,-2.8468 0.29,0.0219 c -0.002,0.0623 -0.002,0.1539 0.003,0.2752 0.005,0.1212 0.0146,0.211 0.0308,0.267 0.0249,0.091 0.0698,0.1567 0.132,0.1971 0.0635,0.0391 0.1398,0.0627 0.2302,0.0695 l 3.7428,0.2832 c 0.0879,0.007 0.1615,-0.003 0.2238,-0.0302 0.0621,-0.0258 0.1192,-0.0864 0.1711,-0.1792 0.0386,-0.0696 0.075,-0.1623 0.1094,-0.2768 0.0356,-0.1143 0.0574,-0.1979 0.0664,-0.2495 l 0.2901,0.022 -0.2177,2.8468 -0.2902,-0.0219 c 9e-4,-0.0776 -0.005,-0.1696 -0.0156,-0.2787 -0.0123,-0.1078 -0.0251,-0.1914 -0.0373,-0.2496 -0.0258,-0.0987 -0.0716,-0.167 -0.1405,-0.2028 -0.0677,-0.0369 -0.1417,-0.0578 -0.2217,-0.0639 l -1.5801,-0.1196 -0.1724,2.2548 1.5432,0.1167 c 0.0864,0.007 0.1615,-0.004 0.2238,-0.0314 0.0609,-0.0285 0.118,-0.089 0.1712,-0.1816 0.0342,-0.0624 0.0687,-0.1463 0.1025,-0.2532 0.035,-0.1055 0.0581,-0.1904 0.0706,-0.2543 l 0.2901,0.022 -0.2177,2.8469 -0.2901,-0.0221 c 0.001,-0.08 -0.002,-0.1694 -0.0112,-0.2706 -0.009,-0.0999 -0.0225,-0.1913 -0.0406,-0.2727 -0.026,-0.0962 -0.072,-0.1634 -0.1382,-0.2014 -0.0675,-0.037 -0.1426,-0.0592 -0.224,-0.0654 l -3.7481,-0.2834 c -0.089,-0.007 -0.1666,0.004 -0.2314,0.0307 -0.0648,0.0283 -0.1218,0.0876 -0.171,0.178 -0.0286,0.0576 -0.0583,0.1433 -0.0872,0.2543 -0.0277,0.1112 -0.0475,0.2026 -0.0581,0.2743 z"
         style="fill:#004d99;fill-rule:evenodd"
         id="path41" />
   </g>
</svg>